<svg xmlns="http://www.w3.org/2000/svg" xmlns:xlink="http://www.w3.org/1999/xlink" width="392" height="383" viewBox="0 0 392 383">
  <defs>
    <linearGradient id="linear-gradient" x1="0.5" y1="1" x2="0.5" gradientUnits="objectBoundingBox">
      <stop offset="0" stop-color="#d906e3"/>
      <stop offset="1" stop-color="#ff6df9"/>
    </linearGradient>
    <linearGradient id="linear-gradient-2" x1="1.126" y1="0.032" x2="0.959" y2="-0.982" gradientUnits="objectBoundingBox">
      <stop offset="0" stop-color="#1852a0"/>
      <stop offset="1" stop-color="#067ed3"/>
    </linearGradient>
    <linearGradient id="linear-gradient-3" x1="0.982" y1="0.095" x2="0.982" y2="-0.879" xlink:href="#linear-gradient-2"/>
    <linearGradient id="linear-gradient-4" x1="-0.043" y1="0.429" x2="-0.151" y2="-0.222" gradientUnits="objectBoundingBox">
      <stop offset="0" stop-color="#188dc1"/>
      <stop offset="1" stop-color="#06bfe7"/>
    </linearGradient>
    <linearGradient id="linear-gradient-5" x1="1.885" y1="1.113" x2="2.142" y2="-0.137" xlink:href="#linear-gradient-4"/>
    <linearGradient id="linear-gradient-6" x1="7.576" y1="0.969" x2="10.63" y2="0.036" xlink:href="#linear-gradient-2"/>
    <linearGradient id="linear-gradient-7" x1="0.5" y1="1" x2="0.5" gradientUnits="objectBoundingBox">
      <stop offset="0" stop-color="#459fff"/>
      <stop offset="1" stop-color="#a96dff"/>
    </linearGradient>
    <linearGradient id="linear-gradient-8" x1="0.5" y1="1" x2="0.5" gradientUnits="objectBoundingBox">
      <stop offset="0" stop-color="#b31a8f"/>
      <stop offset="1" stop-color="#fe117e"/>
    </linearGradient>
    <linearGradient id="linear-gradient-9" x1="0.5" y1="1" x2="0.5" gradientUnits="objectBoundingBox">
      <stop offset="0" stop-color="#8642a0"/>
      <stop offset="1" stop-color="#6456c0"/>
    </linearGradient>
  </defs>
  <g id="Group_11254" data-name="Group 11254" transform="translate(-1425 -186)">
    <rect id="Rectangle_2150" data-name="Rectangle 2150" width="392" height="383" rx="8" transform="translate(1425 186)" fill="#e6e8e8"/>
    <g id="undraw_data_input_fxv2" transform="translate(1554 135)">
      <path id="Path_12220" data-name="Path 12220" d="M367.793,603.422v1.246a7.793,7.793,0,0,0,7.786,7.786H441.6a7.789,7.789,0,0,0,7.786-7.786v-1.246a7.73,7.73,0,0,0-1.807-4.983,8,8,0,0,0-1.314-1.246H412.022a1.558,1.558,0,0,1-1.557-1.557H375.579A7.8,7.8,0,0,0,367.793,603.422Z" transform="translate(-347.778 -305.665)" fill="#3f3d56"/>
      <rect id="Rectangle_2129" data-name="Rectangle 2129" width="8.097" height="57.303" transform="translate(64.552 363.783) rotate(180)" fill="#3f3d56"/>
      <path id="Path_12221" data-name="Path 12221" d="M390.167,713.214c0,.875,12.27.338,27.406.338s27.406.536,27.406-.338-12.27-7.813-27.406-7.813S390.167,712.339,390.167,713.214Z" transform="translate(-356.757 -349.715)" fill="#3f3d56"/>
      <path id="Path_12222" data-name="Path 12222" d="M386.709,595.306l27.63,4.41,32.1,5.126,11.131,1.775a4.087,4.087,0,0,0,4.671-3.388l.5-3.151.467-2.934.386-2.417a4.041,4.041,0,0,0-.772-3.089,3.944,3.944,0,0,0-1.514-1.246H418.231a1.558,1.558,0,0,1-1.557-1.557v-1.227a1.558,1.558,0,0,1,1.557-1.557h16.93l-7.8-1.246-23.993-3.831-14.008-2.236a4.1,4.1,0,0,0-4.684,3.395l-1.358,8.5A4.1,4.1,0,0,0,386.709,595.306Z" transform="translate(-353.988 -298.862)" fill="#6c63ff"/>
      <path id="Path_12223" data-name="Path 12223" d="M488.79,601.969v47.468a4.086,4.086,0,0,0,4.08,4.08h8.614a4.086,4.086,0,0,0,4.08-4.08V601.969a4.028,4.028,0,0,0-.853-2.485,3.938,3.938,0,0,0-1.582-1.246H491.219a3.959,3.959,0,0,0-1.576,1.246A4.038,4.038,0,0,0,488.79,601.969Z" transform="translate(-396.337 -306.708)" fill="#6c63ff"/>
      <path id="Path_12224" data-name="Path 12224" d="M445.411,462.768a4.113,4.113,0,0,0,.324,1.227,4.021,4.021,0,0,0,1.165,1.526l.019.012L471.5,485.471l.361.286,5.089,4.13,1.538,1.246H505.1l-1.532-1.246-21.034-17.066-14.1-11.436L457.47,452.49a4.039,4.039,0,0,0-2.255-.9.019.019,0,0,0-.012-.006,4.142,4.142,0,0,0-.735.012,3.931,3.931,0,0,0-1.065.262,3,3,0,0,0-.66.336,3.932,3.932,0,0,0-1.015.891l-5.344,6.584-.081.106A4.049,4.049,0,0,0,445.411,462.768Z" transform="translate(-378.919 -247.851)" fill="#6c63ff"/>
      <path id="Path_12225" data-name="Path 12225" d="M447.446,465.5a10.1,10.1,0,0,0,1.987,3.133L465.8,486.21a4.079,4.079,0,0,0,5.774-.255l.455-.517.2-.224,7.069-7.929,3.04-3.413a3.583,3.583,0,0,0,.523-.7c.075-.125.143-.255.206-.386a4.131,4.131,0,0,0,.342-1.85,4.025,4.025,0,0,0-1.339-2.847l-18.972-14.5a10.162,10.162,0,0,0-7.35-2.031.019.019,0,0,0-.013-.006,10.678,10.678,0,0,0-1.719.361c-.249.069-.492.156-.741.249a10.04,10.04,0,0,0-4.142,2.927A10.17,10.17,0,0,0,447.446,465.5Z" transform="translate(-379.446 -247.817)" fill="#2f2e41"/>
      <circle id="Ellipse_706" data-name="Ellipse 706" cx="31.219" cy="31.219" r="31.219" transform="translate(29.011 126.829)" fill="#6c63ff"/>
      <path id="Path_12226" data-name="Path 12226" d="M418.773,588.121l11.579,1.844.262.044,17.6,2.809,11.093,1.775,16.307,2.6.467.075,2.423.386,11.13,1.775a4.086,4.086,0,0,0,4.672-3.388l.972-6.079.386-2.417c0-.012.006-.025.006-.037H431.1a1.558,1.558,0,0,1-1.557-1.557v-1.227a1.558,1.558,0,0,1,1.557-1.557h20.4v-6.808l-1.246-.2-6.154-.984-22.691-3.619a4.088,4.088,0,0,0-4.678,3.388l-.5,3.146-.853,5.357A4.091,4.091,0,0,0,418.773,588.121Z" transform="translate(-366.855 -295.981)" fill="#6c63ff"/>
      <path id="Path_12227" data-name="Path 12227" d="M364,507.048c0,25.45,2.585,40.673,42.448,36.313l.162-.019a118.369,118.369,0,0,0,21.009-4.017,62.4,62.4,0,0,0,10.364-4.061c.785-.4,1.538-.816,2.28-1.246H410.5a1.558,1.558,0,0,1-1.557-1.557v-1.227a1.558,1.558,0,0,1,1.557-1.557h20.4v-39.34a4.572,4.572,0,0,1,4.566-4.566h16.6c-.144-.411-.286-.828-.442-1.246a102.052,102.052,0,0,0-5.525-12.569,95.885,95.885,0,0,0-10.327-15.933,66.358,66.358,0,0,0-9.243-9.461c-6.247-5.157-13.049-8.346-19.951-8.346C381.13,438.215,364,481.6,364,507.048Z" transform="translate(-346.254 -242.488)" fill="#2f2e41"/>
      <path id="Path_12228" data-name="Path 12228" d="M433.85,381.293l-.032-1.167c2.17-.06,4.084-.2,5.522-1.247a3.586,3.586,0,0,0,1.389-2.641,2.05,2.05,0,0,0-.672-1.688c-.954-.806-2.49-.545-3.61-.032l-.965.443,1.851-13.528,1.156.158L436.913,373.1a4.118,4.118,0,0,1,3.9.561,3.191,3.191,0,0,1,1.085,2.62,4.744,4.744,0,0,1-1.867,3.543C438.18,381.172,435.779,381.239,433.85,381.293Z" transform="translate(-374.275 -211.674)" fill="#2f2e41"/>
      <rect id="Rectangle_2130" data-name="Rectangle 2130" width="6.283" height="1.167" transform="translate(69.929 150.909)" fill="#2f2e41"/>
      <rect id="Rectangle_2131" data-name="Rectangle 2131" width="6.283" height="1.167" transform="translate(50.096 150.909)" fill="#2f2e41"/>
      <path id="Path_12230" data-name="Path 12230" d="M401.405,481.43a3.285,3.285,0,0,0,.168.33,3.538,3.538,0,0,0,.206.324l13.653,19.651,1.059,1.526,11.137,16.02,10.744,15.466,4.348,6.266a3.625,3.625,0,0,0,.393.48,4.069,4.069,0,0,0,2.547,1.246h.112V516.011l-1.246-1.794-13.971-20.106-15-21.594a4.088,4.088,0,0,0-5.681-1.028l-4.6,3.2-2.473,1.719a4.08,4.08,0,0,0-1.389,5.027Z" transform="translate(-361.123 -255.551)" fill="#6c63ff"/>
      <path id="Path_12231" data-name="Path 12231" d="M397.346,477.872l.616,1.24.006.006.168.33,10.009,19.869a4.094,4.094,0,0,0,5.612,1.37l.648-.4.162-.1,12.906-8.1a4.078,4.078,0,0,0,1.358-5.631l-14.176-19.222a10.189,10.189,0,0,0-12.445-3.214,10.016,10.016,0,0,0-1.383.76,10.192,10.192,0,0,0-3.482,13.093Z" transform="translate(-359.2 -252.472)" fill="#2f2e41"/>
      <path id="Path_12232" data-name="Path 12232" d="M520.855,598.237v46.9a4.086,4.086,0,0,0,4.08,4.08h8.614a4.086,4.086,0,0,0,4.079-4.08v-46.9Z" transform="translate(-409.205 -306.708)" fill="#6c63ff"/>
      <path id="Path_12233" data-name="Path 12233" d="M436.989,562.277V563.5a2.813,2.813,0,0,0,2.255,2.753c.087.012.174.031.262.037s.187.012.286.012h96.021a5.819,5.819,0,0,0,5.818-5.81V521.379a5.819,5.819,0,0,0-5.817-5.811h-71.05a5.818,5.818,0,0,0-5.811,5.811v38.094H439.792a2.8,2.8,0,0,0-2.8,2.8Z" transform="translate(-375.548 -273.532)" fill="#fff"/>
      <path id="Path_12234" data-name="Path 12234" d="M436.989,562.277V563.5a2.813,2.813,0,0,0,2.255,2.753c.087.012.174.031.262.037s.187.012.286.012h96.021a5.819,5.819,0,0,0,5.818-5.81V521.379a5.819,5.819,0,0,0-5.817-5.811h-71.05a5.818,5.818,0,0,0-5.811,5.811v38.094H439.792a2.8,2.8,0,0,0-2.8,2.8Zm1.246,1.227v-1.227a1.557,1.557,0,0,1,1.557-1.557h20.4v-39.34a4.572,4.572,0,0,1,4.566-4.566h71.05a4.574,4.574,0,0,1,4.572,4.566V560.5a4.574,4.574,0,0,1-4.572,4.566H439.792A1.558,1.558,0,0,1,438.235,563.5Z" transform="translate(-375.548 -273.532)" fill="#3f3d56"/>
      <circle id="Ellipse_707" data-name="Ellipse 707" cx="4.79" cy="4.79" r="4.79" transform="translate(119.952 262.616)" fill="#6c63ff"/>
      <rect id="Rectangle_2132" data-name="Rectangle 2132" width="1.246" height="5.606" transform="translate(83.422 286.602)" fill="#3f3d56"/>
    </g>
    <g id="Group_11075" data-name="Group 11075" transform="translate(1624.353 3.142)">
      <path id="Path_12337" data-name="Path 12337" d="M142.78,268.312H109.1a5.026,5.026,0,0,1-5.023-4.856l-.748-22.15a5.026,5.026,0,0,1,5.023-5.2h35.1a5.027,5.027,0,0,1,5.024,5.18l-.677,22.15A5.026,5.026,0,0,1,142.78,268.312Z" transform="translate(-0.078 -0.078)" opacity="0.73" fill="url(#linear-gradient)"/>
      <g id="Group_11071" data-name="Group 11071" transform="translate(103.078 235.858)">
        <path id="Path_12338" data-name="Path 12338" d="M142.7,268.407H109.025a5.18,5.18,0,0,1-5.2-5.024l-.747-22.15a5.2,5.2,0,0,1,5.2-5.375h35.1a5.2,5.2,0,0,1,5.2,5.358l-.677,22.151A5.176,5.176,0,0,1,142.7,268.407Zm-34.426-32.2a4.855,4.855,0,0,0-4.851,5.018l.747,22.15a4.836,4.836,0,0,0,4.852,4.691H142.7a4.832,4.832,0,0,0,4.852-4.706l.677-22.151a4.855,4.855,0,0,0-4.852-5Z" transform="translate(-103.078 -235.858)" fill="#953da2"/>
      </g>
      <g id="Group_11072" data-name="Group 11072" transform="translate(109.7 243.989)">
        <path id="Path_12339" data-name="Path 12339" d="M120.977,247.64l-8.3,9.625,8.456,7.178v-3.7l-4.892-4.235,4.543-5.136Z" transform="translate(-112.673 -247.64)" fill="#fff"/>
      </g>
      <g id="Group_11073" data-name="Group 11073" transform="translate(131.895 244.421)">
        <path id="Path_12340" data-name="Path 12340" d="M145.538,248.266l8.3,9.625-8.456,7.178v-3.7l4.892-4.235-5.444-5.76Z" transform="translate(-144.834 -248.266)" fill="#fff"/>
      </g>
      <g id="Group_11074" data-name="Group 11074" transform="translate(119.812 244.854)">
        <path id="Path_12341" data-name="Path 12341" d="M127.326,264.831l7.235-15.938h3.4l-8.194,15.938Z" transform="translate(-127.326 -248.893)" fill="#fff"/>
      </g>
    </g>
    <g id="Group_11078" data-name="Group 11078" transform="translate(1098.791 -63.091)">
      <g id="Group_11076" data-name="Group 11076">
        <path id="Path_12342" data-name="Path 12342" d="M388.585,286.415l-2.917,8.349C387.278,290.15,389.6,287.156,388.585,286.415Zm-2.917,8.349-2.924,8.346C383.48,302.891,384.05,299.376,385.668,294.764Zm2.917-8.349-2.917,8.349C387.278,290.15,389.6,287.156,388.585,286.415Zm-2.917,8.349-2.924,8.346C383.48,302.891,384.05,299.376,385.668,294.764ZM394.091,302l2.835,1.607,3.06-8.352-3.279-.548c.058-.31.117-.621.158-.927a21.473,21.473,0,0,0,.276-4.163l3.43-2.152-1.563-7.356-3.286,3.143a9.519,9.519,0,0,0-1.681-2.45,6.305,6.305,0,0,0-.569-.554l2.01-4.641-5.348-1.74h0l-1.284,4.676a8.9,8.9,0,0,0-3.621.847l-.59-4.421-5.888,4.457,1.36,3.918a22.252,22.252,0,0,0-2.872,4.182l-2.837-1.6-3.059,8.352,3.278.549a22.677,22.677,0,0,0-.434,5.089l-3.429,2.152,1.562,7.357,3.286-3.143a9.253,9.253,0,0,0,2.252,3l-2.012,4.648,5.264,2.053.815-2.965.553-2.024a8.937,8.937,0,0,0,3.629-.845l.582,4.419,5.888-4.456-1.36-3.918a21.769,21.769,0,0,0,2.316-3.2C393.729,302.659,393.909,302.331,394.091,302Zm-8.423-7.232c-1.618,4.612,0,9.368-2.924,8.346s-4-5.6-2.384-10.2,5.3-7.515,8.225-6.493S387.278,290.15,385.668,294.764Zm2.917-8.349-2.917,8.349C387.278,290.15,389.6,287.156,388.585,286.415Zm-2.917,8.349-2.924,8.346C383.48,302.891,384.05,299.376,385.668,294.764Z" fill-rule="evenodd" fill="url(#linear-gradient-2)"/>
      </g>
      <path id="Path_12343" data-name="Path 12343" d="M396.926,303.6l3.06-8.352-3.121-1.475-.505-.236.328-4.6,3.464-1.692-1.144-7.143-7.546-2.457,1.39,3.314,2.63-5.359-5.348-1.74-2.2-.717-5.271-2.055-.985,3.6-4.586-2.179-5.888,4.456,1.786,4.818-5.506,15.265-2.719,9.914,5.227.572-1.7,3.929,5.271,2.055,7.545,2.458-1.211-2.424-.763-1.451,2.789.91,4.764,1.55,5.888-4.456-3.642-4.29,4.6-2.832Zm-16.566-10.7c1.618-4.612,5.3-7.515,8.225-6.493l-2.917,8.349-2.924,8.346C379.812,302.079,378.744,297.512,380.36,292.908Z" fill-rule="evenodd" fill="url(#linear-gradient-3)"/>
      <g id="Group_11077" data-name="Group 11077">
        <path id="Path_12344" data-name="Path 12344" d="M389.382,301.141l3.058-8.353-3.281-.548a22.909,22.909,0,0,0,.437-5.083l3.43-2.151-1.564-7.358-3.288,3.141a9.18,9.18,0,0,0-2.249-3l2.012-4.643-5.269-2.053-1.365,4.986a8.951,8.951,0,0,0-3.624.845l-.583-4.416-5.888,4.454,1.355,3.918a22.667,22.667,0,0,0-2.873,4.187l-2.837-1.6-3.058,8.352,3.28.549a22.969,22.969,0,0,0-.437,5.083l-3.429,2.151,1.563,7.358,3.288-3.141a9.2,9.2,0,0,0,2.25,3l-2.012,4.643,5.269,2.053,1.365-4.986a8.943,8.943,0,0,0,3.623-.845l.584,4.416,5.888-4.454-1.356-3.918a22.57,22.57,0,0,0,2.873-4.187Zm-14.188-.492c-2.929-1.026-3.995-5.6-2.38-10.2s5.3-7.514,8.227-6.488,3.994,5.594,2.38,10.2S378.123,301.675,375.194,300.649Z" fill-rule="evenodd" fill="url(#linear-gradient-4)"/>
      </g>
      <path id="Path_12345" data-name="Path 12345" d="M400.571,287.461l-7.545-2.456-3.43,2.151,7.545,2.456Z" fill="#601734" fill-rule="evenodd" opacity="0.5" style="mix-blend-mode: multiply;isolation: isolate"/>
      <path id="Path_12346" data-name="Path 12346" d="M392.577,310.1l-7.55-2.459-1.356-3.918,7.545,2.458Z" fill="#b3d9ff" fill-rule="evenodd" style="mix-blend-mode: soft-light;isolation: isolate"/>
      <path id="Path_12347" data-name="Path 12347" d="M385.925,277.788l4.138,1.2,1.4-1.337,2.747.894,1.273-2.939-7.545-2.458Z" fill="#601734" fill-rule="evenodd" opacity="0.5" style="mix-blend-mode: multiply;isolation: isolate"/>
      <path id="Path_12348" data-name="Path 12348" d="M374.932,308.528l3.952,1.645-.329-2.49A7.09,7.09,0,0,1,374.932,308.528Z" fill="#601734" fill-rule="evenodd" opacity="0.5" style="mix-blend-mode: multiply;isolation: isolate"/>
      <path id="Path_12349" data-name="Path 12349" d="M375.542,285.9l6.654,3.518a10.369,10.369,0,0,1,1.711-1.812S382.172,280.273,375.542,285.9Z" fill="#601734" fill-rule="evenodd" opacity="0.5" style="mix-blend-mode: multiply;isolation: isolate"/>
    </g>
    <path id="Path_12350" data-name="Path 12350" d="M5940.76,284.974s17.03,5.052,25.816,3.4,17.175-13.94,17.175-13.94-12.943-8.124-26.646-2.873S5940.76,284.974,5940.76,284.974Z" transform="translate(-4353 -8)"/>
    <g id="Group_11081" data-name="Group 11081" transform="translate(1455.704 181.361)">
      <g id="Group_11080" data-name="Group 11080">
        <path id="Path_12355" data-name="Path 12355" d="M94.353,157.98l.987-22.945H65.3l1.235,22.88Z" fill-rule="evenodd" fill="url(#linear-gradient-5)"/>
        <path id="Path_12356" data-name="Path 12356" d="M95.34,135.035l.9,1.353-.9,21.592h-.987Z" fill-rule="evenodd" fill="url(#linear-gradient-6)"/>
        <path id="Path_12357" data-name="Path 12357" d="M83.767,139.651a20.113,20.113,0,0,1,3.875.142c.581.267-.151,5.635-.151,5.635l1.313,1.205-1.227,1.191s.065,5.44-.71,5.892-3.423,0-3.423,0V152.36a7.852,7.852,0,0,0,2.518-.155c.356-.291.323-5.044.323-5.044l.582-.635-.582-.689s.108-3.388.043-4.318c-.043-.619-2.561-.651-2.561-.651Z" fill="#fff"/>
        <path id="Path_12358" data-name="Path 12358" d="M76.221,139.651a20.111,20.111,0,0,0-3.875.142c-.581.267.151,5.635.151,5.635l-1.314,1.205,1.227,1.191s-.064,5.44.711,5.892,3.423,0,3.423,0V152.36a7.858,7.858,0,0,1-2.519-.155c-.355-.291-.323-5.044-.323-5.044l-.581-.635.581-.689s-.107-3.388-.043-4.318c.043-.619,2.562-.651,2.562-.651Z" fill="#fff"/>
      </g>
    </g>
    <g id="Group_11092" data-name="Group 11092" transform="translate(1352.306 181.037)">
      <path id="Path_12359" data-name="Path 12359" d="M89.817,212.477a5.562,5.562,0,1,1-5.561-5.562A5.561,5.561,0,0,1,89.817,212.477Z" fill="url(#linear-gradient-7)"/>
      <circle id="Ellipse_718" data-name="Ellipse 718" cx="3.16" cy="3.16" r="3.16" transform="translate(226.043 136.406)" fill="url(#linear-gradient-8)"/>
      <circle id="Ellipse_719" data-name="Ellipse 719" cx="2.825" cy="2.825" r="2.825" transform="translate(109.513 307.683)" fill="url(#linear-gradient-9)"/>
      <path id="Path_12360" data-name="Path 12360" d="M222.788,36.963l6.415,12.85-4.286,1.949-6-11.8Z" fill="#ff1d9c"/>
      <path id="Path_12361" data-name="Path 12361" d="M409.558,345.084l-8.57,6.085-2.4-4.544,8.32-4.859Z" fill="#4f31e0"/>
      <g id="Group_11091" data-name="Group 11091">
        <g id="Group_11082" data-name="Group 11082">
          <path id="Path_12362" data-name="Path 12362" d="M347.858,87.331,340.5,68.063l19.093,3.987Zm-6.569-18.592,6.718,17.578,10.7-13.94Z" fill="#744ca2"/>
        </g>
        <g id="Group_11083" data-name="Group 11083">
          <rect id="Rectangle_2151" data-name="Rectangle 2151" width="10.938" height="0.499" transform="matrix(0.591, -0.807, 0.807, 0.591, 400.225, 360.225)" fill="#744ca2"/>
        </g>
        <g id="Group_11084" data-name="Group 11084">
          <path id="Path_12363" data-name="Path 12363" d="M339.915,279.159l-6.945-8.645.391-.312,6.945,8.645Z" fill="#744ca2"/>
        </g>
        <g id="Group_11085" data-name="Group 11085">
          <path id="Path_12364" data-name="Path 12364" d="M125.585,339.88,111.72,329.821l.294-.4,13.866,10.059Z" fill="#744ca2"/>
        </g>
        <g id="Group_11086" data-name="Group 11086">
          <rect id="Rectangle_2152" data-name="Rectangle 2152" width="17.13" height="0.5" transform="translate(113.411 341.311) rotate(-52.701)" fill="#744ca2"/>
        </g>
        <g id="Group_11087" data-name="Group 11087">
          <rect id="Rectangle_2153" data-name="Rectangle 2153" width="0.5" height="10.139" transform="translate(94.237 187.655) rotate(-62.281)" fill="#744ca2"/>
        </g>
        <g id="Group_11088" data-name="Group 11088">
          <path id="Path_12365" data-name="Path 12365" d="M448.051,71.37l-.375-.33,10.371-11.83.375.33Z" fill="#744ca2"/>
        </g>
        <g id="Group_11089" data-name="Group 11089">
          <rect id="Rectangle_2154" data-name="Rectangle 2154" width="0.5" height="10.406" transform="translate(246.142 100.206) rotate(-26.449)" fill="#744ca2"/>
        </g>
        <g id="Group_11090" data-name="Group 11090">
          <rect id="Rectangle_2155" data-name="Rectangle 2155" width="15.543" height="0.499" transform="translate(172.777 266.778) rotate(-39.913)" fill="#744ca2"/>
        </g>
      </g>
    </g>
    <text id="Coming_soon_" data-name="Coming soon…" transform="translate(1568 548)" font-size="18" font-family="Lato-Bold, Lato" font-weight="700"><tspan x="0" y="0">Coming soon…</tspan></text>
  </g>
</svg>
