<svg xmlns="http://www.w3.org/2000/svg" width="107.365" height="80" viewBox="0 0 107.365 80">
  <g id="Blog_post-rafiki" data-name="Blog post-rafiki" transform="translate(0 -55)" opacity="0.747">
    <g id="freepik--background-complete--inject-205" transform="translate(0 55)">
      <rect id="Rectangle_2160" data-name="Rectangle 2160" width="107.365" height="0.054" transform="translate(0 70.303)" fill="#e6e6e6"/>
      <rect id="Rectangle_2161" data-name="Rectangle 2161" width="7.387" height="0.054" transform="translate(15.555 72.341)" fill="#e6e6e6"/>
      <rect id="Rectangle_2162" data-name="Rectangle 2162" width="2.207" height="0.054" transform="translate(61.83 72.723)" fill="#e6e6e6"/>
      <rect id="Rectangle_2163" data-name="Rectangle 2163" width="4.157" height="0.054" transform="translate(25.188 73.105)" fill="#e6e6e6"/>
      <rect id="Rectangle_2164" data-name="Rectangle 2164" width="5.514" height="0.054" transform="translate(84.627 72.978)" fill="#e6e6e6"/>
      <rect id="Rectangle_2165" data-name="Rectangle 2165" width="3.766" height="0.054" transform="translate(77.101 72.216)" fill="#e6e6e6"/>
      <rect id="Rectangle_2166" data-name="Rectangle 2166" width="20.116" height="0.054" transform="translate(38.611 72.13)" fill="#e6e6e6"/>
      <path id="Path_12490" data-name="Path 12490" d="M80.9,115.726H39.434A1.226,1.226,0,0,1,38.21,114.5V56.215A1.226,1.226,0,0,1,39.434,55H80.9a1.226,1.226,0,0,1,1.226,1.226V114.5A1.226,1.226,0,0,1,80.9,115.726ZM39.434,55.043a1.172,1.172,0,0,0-1.17,1.172V114.5a1.172,1.172,0,0,0,1.17,1.172H80.9a1.175,1.175,0,0,0,1.172-1.172V56.215A1.175,1.175,0,0,0,80.9,55.043Z" transform="translate(-30.005 -55)" fill="#e6e6e6"/>
      <path id="Path_12491" data-name="Path 12491" d="M297.191,115.726H255.726A1.228,1.228,0,0,1,254.5,114.5V56.215A1.228,1.228,0,0,1,255.726,55h41.464a1.226,1.226,0,0,1,1.222,1.215V114.5A1.226,1.226,0,0,1,297.191,115.726ZM255.726,55.043a1.175,1.175,0,0,0-1.172,1.172V114.5a1.175,1.175,0,0,0,1.172,1.172h41.464a1.175,1.175,0,0,0,1.172-1.172V56.215a1.175,1.175,0,0,0-1.172-1.172Z" transform="translate(-199.851 -55)" fill="#e6e6e6"/>
      <path id="Path_12492" data-name="Path 12492" d="M325.26,284.61h0c-.118,0-.236,0-.356.011a5.085,5.085,0,0,0-4.544,6.395,25.467,25.467,0,0,1,.8,6.622v6.5a.859.859,0,0,0,.859.859h20.638V284.61Z" transform="translate(-251.431 -235.306)" fill="#f0f0f0"/>
      <path id="Path_12493" data-name="Path 12493" d="M411.252,289.69a5.083,5.083,0,0,0-10.155-.331,5.018,5.018,0,0,0,.163,1.653,25.466,25.466,0,0,1,.8,6.622v6.5a.859.859,0,0,0,.859.859h6.517a.859.859,0,0,0,.859-.859v-6.884a23.232,23.232,0,0,1,.786-6.2A5.078,5.078,0,0,0,411.252,289.69Z" transform="translate(-314.961 -235.303)" fill="#fafafa"/>
      <rect id="Rectangle_2167" data-name="Rectangle 2167" width="36.292" height="12.375" transform="translate(47.913 57.312)" fill="#f0f0f0"/>
      <path id="Path_12494" data-name="Path 12494" d="M155.678,252.86h34.866a3.848,3.848,0,0,1,3.839,3.848v13.775H151.83V256.708A3.848,3.848,0,0,1,155.678,252.86Z" transform="translate(-119.227 -210.373)" fill="#e6e6e6"/>
      <path id="Path_12495" data-name="Path 12495" d="M178.051,252.86h35.237a3.661,3.661,0,0,1,3.661,3.661v13.957H174.39V256.521A3.661,3.661,0,0,1,178.051,252.86Z" transform="translate(-136.943 -210.373)" fill="#fafafa"/>
      <path id="Path_12496" data-name="Path 12496" d="M227.563,316.64H262.4a1.117,1.117,0,0,1,1.117,1.117v2.807a1.117,1.117,0,0,1-1.117,1.117H227.563a.333.333,0,0,1-.333-.333v-4.374A.333.333,0,0,1,227.563,316.64Z" transform="translate(-178.437 -260.458)" fill="#e6e6e6"/>
      <path id="Path_12497" data-name="Path 12497" d="M124.731,284.61h0c-.118,0-.236,0-.356.011a5.085,5.085,0,0,0-4.552,6.393,25.467,25.467,0,0,1,.8,6.622v6.5a.859.859,0,0,0,.859.859h20.638V284.61Z" transform="translate(-93.956 -235.306)" fill="#f0f0f0"/>
      <path id="Path_12498" data-name="Path 12498" d="M210.752,289.691a5.083,5.083,0,0,0-10.155-.331,5.019,5.019,0,0,0,.163,1.653,25.467,25.467,0,0,1,.8,6.622v6.5a.859.859,0,0,0,.859.859h6.517a.859.859,0,0,0,.859-.859v-6.884a23.232,23.232,0,0,1,.786-6.2A5.078,5.078,0,0,0,210.752,289.691Z" transform="translate(-157.514 -235.304)" fill="#fafafa"/>
      <path id="Path_12499" data-name="Path 12499" d="M202.449,380.148h-59.71a.618.618,0,0,1-.618-.618h60.958a.618.618,0,0,1-.629.618Z" transform="translate(-111.602 -309.844)" fill="#e0e0e0"/>
      <rect id="Rectangle_2168" data-name="Rectangle 2168" width="36.751" height="17.896" transform="translate(25.746 12.311)" fill="#e0e0e0"/>
      <rect id="Rectangle_2169" data-name="Rectangle 2169" width="37.288" height="17.896" transform="translate(26.974 12.311)" fill="#f5f5f5"/>
      <rect id="Rectangle_2170" data-name="Rectangle 2170" width="15.076" height="34.466" transform="translate(62.852 13.721) rotate(90)" fill="#fff"/>
      <rect id="Rectangle_2171" data-name="Rectangle 2171" width="7.767" height="27.672" rx="3.883" transform="translate(59.455 17.374) rotate(90)" fill="#f5f5f5"/>
      <rect id="Rectangle_2172" data-name="Rectangle 2172" width="8.755" height="9.07" transform="translate(71.293 23.167)" fill="#e0e0e0"/>
      <rect id="Rectangle_2173" data-name="Rectangle 2173" width="8.533" height="9.07" transform="translate(72.407 23.167)" fill="#f5f5f5"/>
      <rect id="Rectangle_2174" data-name="Rectangle 2174" width="7.642" height="7.103" transform="translate(80.225 23.882) rotate(90)" fill="#fff"/>
      <path id="Path_12500" data-name="Path 12500" d="M349.963,175.02l-1.943,3.365h3.887Z" transform="translate(-273.29 -149.248)" fill="#f5f5f5"/>
      <rect id="Rectangle_2175" data-name="Rectangle 2175" width="8.755" height="9.07" transform="translate(82.959 17.221)" fill="#e0e0e0"/>
      <rect id="Rectangle_2176" data-name="Rectangle 2176" width="8.533" height="9.07" transform="translate(84.076 17.221)" fill="#f5f5f5"/>
      <rect id="Rectangle_2177" data-name="Rectangle 2177" width="7.642" height="7.103" transform="translate(91.894 17.936) rotate(90)" fill="#fff"/>
      <path id="Path_12501" data-name="Path 12501" d="M405.522,151.833l.844-1.46a1,1,0,0,0-.87-1.5h-1.686a1,1,0,0,0-.87,1.5l.844,1.46a1,1,0,0,0,1.737,0Z" transform="translate(-316.312 -128.713)" fill="#f5f5f5"/>
      <rect id="Rectangle_2178" data-name="Rectangle 2178" width="4.846" height="15.025" transform="translate(7.526 54.327)" fill="#e6e6e6"/>
      <rect id="Rectangle_2179" data-name="Rectangle 2179" width="23.895" height="0.951" transform="translate(8.456 69.352)" fill="#e6e6e6"/>
      <rect id="Rectangle_2180" data-name="Rectangle 2180" width="20.91" height="15.025" transform="translate(33.283 69.352) rotate(180)" fill="#fafafa"/>
      <rect id="Rectangle_2181" data-name="Rectangle 2181" width="17.101" height="4.928" transform="translate(31.379 61.104) rotate(180)" fill="#f0f0f0"/>
      <rect id="Rectangle_2182" data-name="Rectangle 2182" width="17.101" height="4.928" transform="translate(31.379 67.501) rotate(180)" fill="#f0f0f0"/>
      <path id="Path_12502" data-name="Path 12502" d="M99.617,327.186h-4.11a.339.339,0,0,1-.337-.339h0a.339.339,0,0,1,.337-.337h4.11a.339.339,0,0,1,.337.337h0A.339.339,0,0,1,99.617,327.186Z" transform="translate(-74.734 -268.209)" fill="#fafafa"/>
      <path id="Path_12503" data-name="Path 12503" d="M99.617,356.984h-4.11a.337.337,0,0,1-.337-.337h0a.337.337,0,0,1,.337-.337h4.11a.337.337,0,0,1,.337.337h0A.337.337,0,0,1,99.617,356.984Z" transform="translate(-74.734 -291.61)" fill="#fafafa"/>
      <path id="Path_12504" data-name="Path 12504" d="M73.427,256.67H70.635c.079,2.706-1.155,4.234-1.155,7.419,0,2.865.7,3.4,2.553,3.4s2.553-.537,2.553-3.4C74.582,260.9,73.345,259.376,73.427,256.67Z" transform="translate(-54.561 -213.365)" fill="#fafafa"/>
      <path id="Path_12505" data-name="Path 12505" d="M76.63,306.58h2.027v.172a.133.133,0,0,1-.133.133H76.763a.133.133,0,0,1-.133-.133Z" transform="translate(-60.175 -252.558)" fill="#f3f7ff"/>
      <rect id="Rectangle_2183" data-name="Rectangle 2183" width="0.215" height="4.108" transform="translate(14.179 44.29)" fill="#e0e0e0"/>
      <path id="Path_12506" data-name="Path 12506" d="M69.555,234.016H60.68l1.522-9.1h5.832Z" transform="translate(-47.65 -188.433)" fill="#ebebeb"/>
    </g>
    <g id="freepik--Shadow--inject-205" transform="translate(12.049 130.139)">
      <ellipse id="Ellipse_730" data-name="Ellipse 730" cx="41.634" cy="2.431" rx="41.634" ry="2.431" fill="#f5f5f5"/>
    </g>
    <g id="freepik--Plant--inject-205" transform="translate(41.189 67.636)">
      <path id="Path_12507" data-name="Path 12507" d="M241.367,221.643c-.2-7.007-.46-40.721-.056-44.234l.805-.878s-.019,1.007-.039,3.689c-.084,12-.4,39.633-.326,41.417Z" transform="translate(-230.515 -163.07)" fill="#407bff"/>
      <path id="Path_12508" data-name="Path 12508" d="M241.367,221.643c-.2-7.007-.46-40.721-.056-44.234l.805-.878s-.019,1.007-.039,3.689c-.084,12-.4,39.633-.326,41.417Z" transform="translate(-230.515 -163.07)" fill="#fff" opacity="0.6"/>
      <path id="Path_12509" data-name="Path 12509" d="M246.092,275.554a26.556,26.556,0,0,1,6.755-4.9c1.853-.906-3.006,5.012-4.909,7.217s-4.243,4.642-4.995,6.7C242.794,280.381,243.747,277.888,246.092,275.554Z" transform="translate(-231.953 -236.912)" fill="#407bff"/>
      <path id="Path_12510" data-name="Path 12510" d="M246.092,275.554a26.556,26.556,0,0,1,6.755-4.9c1.853-.906-3.006,5.012-4.909,7.217s-4.243,4.642-4.995,6.7C242.794,280.381,243.747,277.888,246.092,275.554Z" transform="translate(-231.953 -236.912)" fill="#fff" opacity="0.6"/>
      <path id="Path_12511" data-name="Path 12511" d="M239.713,134.578c-1.447-6.386-1-10.058.629-13.994,1.525-3.68,2.714-5.325,4.486-6.719.457-.359-.571,4.786-2.147,8.621-1.112,2.706-1.664,6.227-2.433,8.254A13.727,13.727,0,0,0,239.713,134.578Z" transform="translate(-228.742 -113.847)" fill="#407bff"/>
      <path id="Path_12512" data-name="Path 12512" d="M239.713,134.578c-1.447-6.386-1-10.058.629-13.994,1.525-3.68,2.714-5.325,4.486-6.719.457-.359-.571,4.786-2.147,8.621-1.112,2.706-1.664,6.227-2.433,8.254A13.727,13.727,0,0,0,239.713,134.578Z" transform="translate(-228.742 -113.847)" fill="#fff" opacity="0.6"/>
      <path id="Path_12513" data-name="Path 12513" d="M242.989,187.258c-.159-3.822-.35-7.516,2.555-12.371.706-1.183,6.957-11.166,9.115-11.767,1.059-.292-.822,7.432-3.713,12.042-2.169,3.455-3.169,4.37-5.542,8.4C244.471,185.154,242.989,187.258,242.989,187.258Z" transform="translate(-231.94 -152.534)" fill="#407bff"/>
      <path id="Path_12514" data-name="Path 12514" d="M242.989,187.258c-.159-3.822-.35-7.516,2.555-12.371.706-1.183,6.957-11.166,9.115-11.767,1.059-.292-.822,7.432-3.713,12.042-2.169,3.455-3.169,4.37-5.542,8.4C244.471,185.154,242.989,187.258,242.989,187.258Z" transform="translate(-231.94 -152.534)" fill="#fff" opacity="0.6"/>
      <path id="Path_12515" data-name="Path 12515" d="M199.133,183.865a25.243,25.243,0,0,0-6.906-4.9c-1.853-.818,3.026,5.3,5.368,7.962s4.49,4.965,5.409,7.331C202.74,189.19,201.686,186.328,199.133,183.865Z" transform="translate(-191.816 -164.925)" fill="#407bff"/>
      <path id="Path_12516" data-name="Path 12516" d="M199.133,183.865a25.243,25.243,0,0,0-6.906-4.9c-1.853-.818,3.026,5.3,5.368,7.962s4.49,4.965,5.409,7.331C202.74,189.19,201.686,186.328,199.133,183.865Z" transform="translate(-191.816 -164.925)" fill="#fff" opacity="0.6"/>
      <path id="Path_12517" data-name="Path 12517" d="M213.252,253.978a22.719,22.719,0,0,0-2.809-8.443c-1.449-2.276-3.68-5.746-5.527-6.685-.442-.225,2,6.807,3.182,8.752a21.206,21.206,0,0,0,3.5,4.378C211.915,252.306,213.252,253.978,213.252,253.978Z" transform="translate(-202.062 -212.004)" fill="#407bff"/>
      <path id="Path_12518" data-name="Path 12518" d="M213.252,253.978a22.719,22.719,0,0,0-2.809-8.443c-1.449-2.276-3.68-5.746-5.527-6.685-.442-.225,2,6.807,3.182,8.752a21.206,21.206,0,0,0,3.5,4.378C211.915,252.306,213.252,253.978,213.252,253.978Z" transform="translate(-202.062 -212.004)" fill="#fff" opacity="0.6"/>
      <path id="Path_12519" data-name="Path 12519" d="M232.843,369.5H226.35l-.49-7h7.473Z" transform="translate(-218.55 -309.107)" fill="#407bff"/>
      <path id="Path_12520" data-name="Path 12520" d="M231.162,361.323h-8.439l-.243-1.823H231.4Z" transform="translate(-215.895 -306.751)" fill="#407bff"/>
      <g id="Group_11101" data-name="Group 11101" transform="translate(6.585 52.749)" opacity="0.4">
        <path id="Path_12521" data-name="Path 12521" d="M232.843,369.5H226.35l-.49-7h7.473Z" transform="translate(-225.134 -361.856)"/>
        <path id="Path_12522" data-name="Path 12522" d="M231.162,361.323h-8.439l-.243-1.823H231.4Z" transform="translate(-222.48 -359.5)"/>
      </g>
    </g>
    <g id="freepik--Character--inject-205" transform="translate(50.047 79.434)">
      <path id="Path_12523" data-name="Path 12523" d="M245.527,191.236c-2,.359-8.512-3.7-10.717-6.365a33.087,33.087,0,0,0,4.329-4.529,21.013,21.013,0,0,1-5.091,3.865c-.616-.533-.977-.859-.977-.859a15.979,15.979,0,0,0,8.551-8.448c2.261-5.005,5.546-7.692,9.019-5.119C257.39,171.436,250.233,189.177,245.527,191.236Z" transform="translate(-233.07 -168.791)" fill="#263238"/>
      <path id="Path_12524" data-name="Path 12524" d="M277.365,213.3c-.054.079-.086.127-.129.183l-.118.159c-.082.1-.163.2-.247.3-.17.193-.341.378-.522.554a10.824,10.824,0,0,1-1.16.968,10.5,10.5,0,0,1-1.288.782c-.228.11-.453.215-.687.311l-.35.137-.092.036c-.056.017-.1.034-.165.049a1.236,1.236,0,0,1-.429.032,1.131,1.131,0,0,1-.5-.176,1.2,1.2,0,0,1-.32-.324,1.66,1.66,0,0,1-.23-.558,3.65,3.65,0,0,1-.075-.859,9.537,9.537,0,0,1,.163-1.48c.088-.475.191-.938.307-1.4s.249-.91.406-1.366l.805.2c-.058.451-.122.908-.165,1.364s-.1.906-.122,1.355a10.544,10.544,0,0,0-.011,1.3,2.294,2.294,0,0,0,.086.526c.019.062.047.1.039.079a.215.215,0,0,0-.075-.077.371.371,0,0,0-.172-.067.279.279,0,0,0-.086,0h0l.069-.032.288-.14c.193-.092.378-.2.565-.3a11.892,11.892,0,0,0,1.063-.711,9.961,9.961,0,0,0,.956-.846,6.124,6.124,0,0,0,.429-.457c.067-.079.135-.159.2-.238l.094-.118.077-.1Z" transform="translate(-262.896 -201.661)" fill="#e4897b"/>
      <path id="Path_12525" data-name="Path 12525" d="M274.813,207.933l.694-1.243-1.7.1a1.767,1.767,0,0,0,.361,1.3Z" transform="translate(-265.047 -198.552)" fill="#e4897b"/>
      <path id="Path_12526" data-name="Path 12526" d="M291.663,213.385a4.65,4.65,0,0,0-2.963,1.666l2.147,2.706a7.789,7.789,0,0,0,1.757-2.514C292.761,214.313,292.677,213.345,291.663,213.385Z" transform="translate(-276.755 -203.809)" fill="#407bff"/>
      <path id="Path_12527" data-name="Path 12527" d="M291.663,213.385a4.65,4.65,0,0,0-2.963,1.666l2.147,2.706a7.789,7.789,0,0,0,1.757-2.514C292.761,214.313,292.677,213.345,291.663,213.385Z" transform="translate(-276.755 -203.809)" opacity="0.3"/>
      <path id="Path_12528" data-name="Path 12528" d="M275.227,203.21l-1.25.311-.137.539,1.7-.1Z" transform="translate(-265.085 -195.819)" fill="#e4897b"/>
      <path id="Path_12529" data-name="Path 12529" d="M278.384,196.25l.221.116-.1,1.565-.494.034Z" transform="translate(-268.36 -190.354)" fill="#e4897b"/>
      <path id="Path_12530" data-name="Path 12530" d="M276.453,195.97l-.217.052-.206,1.877.487-.125Z" transform="translate(-266.805 -190.134)" fill="#e4897b"/>
      <path id="Path_12531" data-name="Path 12531" d="M295.1,206.109s-.659.5,3.719,9.169l6.324-2c-.921-2.54-1.428-4.129-1.868-9.8a19.605,19.605,0,0,0-2.791.5,21.027,21.027,0,0,0-2.875.906C296.411,205.379,295.1,206.109,295.1,206.109Z" transform="translate(-281.753 -196.023)" fill="#407bff"/>
      <path id="Path_12532" data-name="Path 12532" d="M295.1,206.109s-.659.5,3.719,9.169l6.324-2c-.921-2.54-1.428-4.129-1.868-9.8a19.605,19.605,0,0,0-2.791.5,21.027,21.027,0,0,0-2.875.906C296.411,205.379,295.1,206.109,295.1,206.109Z" transform="translate(-281.753 -196.023)" opacity="0.3"/>
      <path id="Path_12533" data-name="Path 12533" d="M352.311,394.188l-1.578.152-1.643-3.758,1.578-.152Z" transform="translate(-324.177 -342.837)" fill="#e4897b"/>
      <path id="Path_12534" data-name="Path 12534" d="M349.09,390.585l.846,1.937h1.647l-.913-2.091Z" transform="translate(-324.177 -342.837)" fill="#ce6f64"/>
      <path id="Path_12535" data-name="Path 12535" d="M414.508,365.795l-.9,1.366-3.449-1.647.9-1.364Z" transform="translate(-372.133 -322.2)" fill="#e4897b"/>
      <path id="Path_12536" data-name="Path 12536" d="M411.07,364.15l-.9,1.364,1.778.848.9-1.364Z" transform="translate(-372.141 -322.2)" fill="#ce6f64"/>
      <path id="Path_12537" data-name="Path 12537" d="M312.457,253.1s-.318,13.041,1.288,17.76c1.668,4.909,6.584,12.107,6.584,12.107l3.064-.148s-4.419-9.044-4.917-12.95c-.683-5.385-1.383-18.235-1.383-18.235Z" transform="translate(-295.39 -233.842)" fill="#407bff"/>
      <path id="Path_12538" data-name="Path 12538" d="M312.457,253.1s-.318,13.041,1.288,17.76c1.668,4.909,6.584,12.107,6.584,12.107l3.064-.148s-4.419-9.044-4.917-12.95c-.683-5.385-1.383-18.235-1.383-18.235Z" transform="translate(-295.39 -233.842)" opacity="0.6"/>
      <path id="Path_12539" data-name="Path 12539" d="M328.335,271.894l-2.255-5.154s.26,5.942,2.422,7.47C328.444,273.437,328.388,272.658,328.335,271.894Z" transform="translate(-306.108 -245.707)" opacity="0.3"/>
      <path id="Path_12540" data-name="Path 12540" d="M320.34,250.605s4.295,10.408,7.133,16.139c2.3,4.627,13.27,9.382,13.27,9.382l1.151-1.933s-8.394-5.325-9.981-8.465c-5.078-10.047-4-14.415-6.916-16.6Z" transform="translate(-301.6 -231.879)" fill="#407bff"/>
      <path id="Path_12541" data-name="Path 12541" d="M320.34,250.605s4.295,10.408,7.133,16.139c2.3,4.627,13.27,9.382,13.27,9.382l1.151-1.933s-8.394-5.325-9.981-8.465c-5.078-10.047-4-14.415-6.916-16.6Z" transform="translate(-301.6 -231.879)" opacity="0.6"/>
      <path id="Path_12542" data-name="Path 12542" d="M424.445,369.948l.118-1.821a.133.133,0,0,1,.12-.125l1.464-.114a.262.262,0,0,1,.273.279c-.054.644-.11.945-.163,1.75-.03.5-.028,1.6-.073,2.28s-.724.679-.767.389a4.786,4.786,0,0,0-.889-2.349A.429.429,0,0,1,424.445,369.948Z" transform="translate(-383.35 -325.136)" fill="#263238"/>
      <path id="Path_12543" data-name="Path 12543" d="M345.172,406.37H347.1a.163.163,0,0,1,.155.118l.429,1.533a.238.238,0,0,1-.236.307c-.679-.011-1.009-.049-1.862-.049-.524,0-1.881.054-2.6.054s-.859-.717-.563-.782a5.256,5.256,0,0,0,2.476-1.074.4.4,0,0,1,.273-.107Z" transform="translate(-318.827 -355.354)" fill="#263238"/>
      <path id="Path_12544" data-name="Path 12544" d="M308.027,191.13c.112.983.466,2.734,1.308,3.146,0,0,.045,1.018-1.673,1.563-1.89.6-1.2-.644-1.2-.644.953-.573.685-1.329.277-1.991Z" transform="translate(-290.606 -186.333)" fill="#e4897b"/>
      <path id="Path_12545" data-name="Path 12545" d="M299.2,206.25c.468-.24,1.063-.53,1.632-.769a21.124,21.124,0,0,1,2.873-.91c.554-.146,1.112-.256,1.583-.331.1.311.429,2.56-2.929,3.391C299.419,208.361,299.048,206.735,299.2,206.25Z" transform="translate(-284.979 -196.628)" fill="#e4897b"/>
      <path id="Path_12546" data-name="Path 12546" d="M305.947,209.533a.116.116,0,0,1-.077-.03.112.112,0,0,1-.03-.077.107.107,0,0,1,.03-.075.112.112,0,0,1,.152,0,.11.11,0,0,1,.032.075.114.114,0,0,1-.032.077A.107.107,0,0,1,305.947,209.533Z" transform="translate(-290.214 -200.617)" fill="#f0f0f0"/>
      <path id="Path_12547" data-name="Path 12547" d="M306.556,208.708a.11.11,0,0,1-.1-.12h0a.107.107,0,0,1,.118-.094h0a.107.107,0,0,1,.1.118h0a.109.109,0,0,1-.107.1Zm.333-.1a.11.11,0,0,1,.094-.12h0a.107.107,0,0,1,.118.094h0a.105.105,0,0,1-.094.12h0A.11.11,0,0,1,306.889,208.6Zm.429-.064a.107.107,0,0,1,.075-.131h0a.105.105,0,0,1,.131.077h0a.107.107,0,0,1-.075.131h-.028a.107.107,0,0,1-.107-.077Zm-1.209.026a.105.105,0,0,1-.039-.146h0a.11.11,0,0,1,.148-.039h0a.107.107,0,0,1,.037.148h0a.105.105,0,0,1-.092.052h0a.1.1,0,0,1-.058-.015Zm1.619-.15a.107.107,0,0,1,.056-.142h0a.107.107,0,0,1,.142.056h0a.11.11,0,0,1-.056.142h0a.1.1,0,0,1-.043,0h0a.107.107,0,0,1-.1-.056Zm.374-.2a.107.107,0,0,1,.028-.15h0a.107.107,0,0,1,.148.028h0a.105.105,0,0,1-.026.148h0a.112.112,0,0,1-.062.019h0A.105.105,0,0,1,308.1,208.218Zm-2.323,0h0a.107.107,0,0,1,.052-.144h0a.105.105,0,0,1,.142.049h0a.107.107,0,0,1-.049.144h0a.116.116,0,0,1-.045.011h0A.107.107,0,0,1,305.779,208.218Zm2.669-.249a.105.105,0,0,1,0-.15h0a.1.1,0,0,1,.15,0h0a.107.107,0,0,1,0,.152h0a.107.107,0,0,1-.079.034h0a.11.11,0,0,1-.071-.045Zm-2.779-.215a.107.107,0,0,1,.1-.114h0a.11.11,0,0,1,.114.1h0a.107.107,0,0,1-.1.112h0a.107.107,0,0,1-.112-.1Zm3.056-.12a.107.107,0,0,1-.036-.148h0a.109.109,0,0,1,.148-.034h0a.11.11,0,0,1,.036.148h0a.112.112,0,0,1-.092.052h0a.107.107,0,0,1-.056-.019Zm.215-.378a.105.105,0,0,1-.062-.137h0a.105.105,0,0,1,.137-.062h0a.107.107,0,0,1,.062.14h0a.105.105,0,0,1-.1.069h0a.082.082,0,0,1-.045-.011Zm.135-.406a.112.112,0,0,1-.084-.129h0a.107.107,0,0,1,.129-.082h0a.105.105,0,0,1,.082.127h0a.109.109,0,0,1-.105.086h-.021Z" transform="translate(-290.08 -198.51)" fill="#f0f0f0"/>
      <path id="Path_12548" data-name="Path 12548" d="M321.5,204.829a.1.1,0,0,1-.107-.107.107.107,0,0,1,.03-.075.123.123,0,0,1,.034-.024.114.114,0,0,1,.118.024.11.11,0,0,1,.032.075.118.118,0,0,1-.032.077.116.116,0,0,1-.034.021A.1.1,0,0,1,321.5,204.829Z" transform="translate(-302.425 -196.923)" fill="#f0f0f0"/>
      <path id="Path_12549" data-name="Path 12549" d="M308.962,195.06l-.762,1.22a2.96,2.96,0,0,1,.251.483c.376-.183.859-.721.769-1.149A1.718,1.718,0,0,0,308.962,195.06Z" transform="translate(-292.067 -189.419)" fill="#ce6f64"/>
      <path id="Path_12550" data-name="Path 12550" d="M296.385,175.511c.539,1.529.8,2.164.371,3.249a2.072,2.072,0,0,1-3.627.623c-.887-1.2-1.621-3.5-.414-4.713a2.212,2.212,0,0,1,3.67.842Z" transform="translate(-279.41 -172.889)" fill="#e4897b"/>
      <path id="Path_12551" data-name="Path 12551" d="M301.554,173.42c-.337.52,1.035,3.526,3.047,2.927,1.007-.3.668-.973.075-1.57a4.576,4.576,0,0,0-2.641-1.288Z" transform="translate(-286.808 -172.426)" fill="#263238"/>
      <path id="Path_12552" data-name="Path 12552" d="M293.036,173.8a2.255,2.255,0,0,0-2.476,2.306,5.3,5.3,0,0,1,3.1-.859Z" transform="translate(-278.213 -172.719)" fill="#263238"/>
      <path id="Path_12553" data-name="Path 12553" d="M312.032,185.248a1.181,1.181,0,0,1-.09.9c-.2.365-.595.258-.788-.084-.174-.309-.279-.872.039-1.123a.535.535,0,0,1,.84.3Z" transform="translate(-294.256 -181.391)" fill="#e4897b"/>
      <path id="Path_12554" data-name="Path 12554" d="M317.727,247.177l.464.477c.037.036,0,.1-.073.122l-6.637,2.1a.112.112,0,0,1-.129-.03l-.236-.55c-.017-.036.024-.086.086-.105l6.408-2.027A.12.12,0,0,1,317.727,247.177Z" transform="translate(-294.354 -230.327)" fill="#407bff"/>
      <path id="Path_12555" data-name="Path 12555" d="M301.258,186.737c.052.122.028.247-.049.281s-.187-.039-.238-.159-.028-.247.052-.281S301.206,186.615,301.258,186.737Z" transform="translate(-286.368 -182.752)" fill="#263238"/>
      <path id="Path_12556" data-name="Path 12556" d="M294.848,189.447c.052.12.03.247-.049.281s-.187-.039-.238-.159-.028-.247.052-.281S294.8,189.325,294.848,189.447Z" transform="translate(-281.335 -184.88)" fill="#263238"/>
      <path id="Path_12557" data-name="Path 12557" d="M293.9,189.28l-.329.041S293.817,189.484,293.9,189.28Z" transform="translate(-280.579 -184.88)" fill="#263238"/>
      <path id="Path_12558" data-name="Path 12558" d="M297.743,190.31a3.591,3.591,0,0,1-.1.96.563.563,0,0,0,.466-.1Z" transform="translate(-283.775 -185.689)" fill="#de5753"/>
      <path id="Path_12559" data-name="Path 12559" d="M302.531,192.72a.037.037,0,0,1-.034-.024.039.039,0,0,1,.019-.052,1.041,1.041,0,0,0,.625-.709.037.037,0,0,1,.045-.03.039.039,0,0,1,.032.045,1.114,1.114,0,0,1-.672.764Z" transform="translate(-287.586 -186.941)" fill="#263238"/>
      <path id="Path_12560" data-name="Path 12560" d="M300.729,183.563a.067.067,0,0,1-.039-.011.61.61,0,0,0-.556-.043.078.078,0,1,1-.071-.14.767.767,0,0,1,.7.049.077.077,0,0,1,.028.105A.071.071,0,0,1,300.729,183.563Z" transform="translate(-285.644 -180.189)" fill="#263238"/>
      <path id="Path_12561" data-name="Path 12561" d="M291.45,185.933h-.013a.077.077,0,0,1-.062-.09.767.767,0,0,1,.429-.567.077.077,0,1,1,.06.142.614.614,0,0,0-.329.453.079.079,0,0,1-.086.062Z" transform="translate(-278.854 -181.729)" fill="#263238"/>
      <path id="Path_12562" data-name="Path 12562" d="M334.233,210.28c.155.183.344.389.52.584s.367.389.556.578c.376.382.762.754,1.168,1.1s.816.683,1.245.983c.105.079.215.146.326.215s.215.144.329.215.23.14.331.193l.137.071.15.06a3.842,3.842,0,0,0,.668.176,6.321,6.321,0,0,0,.741.071,10.482,10.482,0,0,0,1.565-.082,15.3,15.3,0,0,0,1.6-.275c.53-.109,1.074-.253,1.58-.4l.307.769a16.26,16.26,0,0,1-1.6.644,16.584,16.584,0,0,1-1.673.47,10.275,10.275,0,0,1-1.767.243,5.69,5.69,0,0,1-1.9-.215l-.243-.086-.241-.107c-.15-.071-.271-.14-.406-.215s-.264-.142-.391-.215-.26-.148-.382-.23a14.344,14.344,0,0,1-1.432-1.031c-.453-.369-.887-.76-1.3-1.168q-.309-.309-.606-.631c-.2-.215-.384-.429-.584-.676Z" transform="translate(-311.487 -201.371)" fill="#e4897b"/>
      <path id="Path_12563" data-name="Path 12563" d="M423.8,378.855a.337.337,0,0,1-.062,0,.127.127,0,0,1-.1-.084c-.075-.2.277-.67.318-.724a.04.04,0,0,1,.069.017c.037.215.075.6-.075.741A.2.2,0,0,1,423.8,378.855Zm.159-.691c-.135.193-.292.47-.253.573,0,.013.015.028.047.034a.146.146,0,0,0,.14-.03c.082-.071.105-.286.067-.578Z" transform="translate(-382.704 -333.103)" fill="#407bff"/>
      <path id="Path_12564" data-name="Path 12564" d="M422.094,378.4a.168.168,0,0,1-.047,0,.137.137,0,0,1-.1-.137.2.2,0,0,1,.062-.161c.167-.165.644-.137.657-.137a.045.045,0,0,1,.032.021.036.036,0,0,1,0,.039,1.028,1.028,0,0,1-.606.376Zm.481-.365a.859.859,0,0,0-.511.118.129.129,0,0,0-.039.1c0,.049.024.062.041.067.112.03.389-.137.522-.286Z" transform="translate(-381.389 -333.046)" fill="#407bff"/>
      <path id="Path_12565" data-name="Path 12565" d="M350.013,406.362a.644.644,0,0,1-.378-.09.234.234,0,0,1-.1-.187.109.109,0,0,1,.047-.105c.178-.118.837.18.968.243a.036.036,0,0,1,.021.039.041.041,0,0,1-.03.034,2.535,2.535,0,0,1-.53.067Zm-.309-.335a.14.14,0,0,0-.075.017.034.034,0,0,0-.015.036.157.157,0,0,0,.067.129,1.153,1.153,0,0,0,.728.034A2.362,2.362,0,0,0,349.7,406.027Z" transform="translate(-324.527 -355.027)" fill="#407bff"/>
      <path id="Path_12566" data-name="Path 12566" d="M351.778,404.879h-.015c-.215-.09-.659-.442-.644-.627,0-.039.032-.09.133-.1.384-.049.548.644.556.683a.039.039,0,0,1-.039.047Zm-.483-.655h-.026c-.041,0-.062.015-.064.034-.015.107.29.387.513.509C351.666,404.6,351.522,404.224,351.295,404.224Z" transform="translate(-325.77 -353.61)" fill="#407bff"/>
      <path id="Path_12567" data-name="Path 12567" d="M387.131,220.917l-.464-1.147-.777,1.469s.477.81,1.153.749l.105-.3A1.1,1.1,0,0,0,387.131,220.917Z" transform="translate(-353.075 -208.823)" fill="#e4897b"/>
      <path id="Path_12568" data-name="Path 12568" d="M300.286,186.57l-.326.041S300.207,186.774,300.286,186.57Z" transform="translate(-285.597 -182.752)" fill="#263238"/>
      <path id="Path_12569" data-name="Path 12569" d="M349.185,393.8l-3.657.193L345,392.981l3.968-.131Z" transform="translate(-320.965 -344.738)" fill="#407bff"/>
      <path id="Path_12570" data-name="Path 12570" d="M349.185,393.8l-3.657.193L345,392.981l3.968-.131Z" transform="translate(-320.965 -344.738)" fill="#fff" opacity="0.7"/>
      <path id="Path_12571" data-name="Path 12571" d="M413.713,362.542l-1.475,2.42-.777-.161,1.383-2.841Z" transform="translate(-373.154 -320.481)" fill="#407bff"/>
      <path id="Path_12572" data-name="Path 12572" d="M413.713,362.542l-1.475,2.42-.777-.161,1.383-2.841Z" transform="translate(-373.154 -320.481)" fill="#fff" opacity="0.7"/>
      <path id="Path_12573" data-name="Path 12573" d="M337.532,248.75l.172-.054c.034-.011.054-.036.045-.058l-.32-.719c0-.021-.045-.028-.079-.017l-.172.054a.047.047,0,0,0-.045.058l.314.711C337.455,248.752,337.491,248.76,337.532,248.75Z" transform="translate(-314.786 -230.91)" fill="#407bff"/>
      <path id="Path_12574" data-name="Path 12574" d="M313.723,256.311l.172-.054a.048.048,0,0,0,.047-.058l-.314-.711c-.011-.021-.045-.028-.079-.017l-.172.054a.047.047,0,0,0-.045.058l.314.711C313.655,256.313,313.689,256.322,313.723,256.311Z" transform="translate(-296.096 -236.854)" fill="#407bff"/>
      <path id="Path_12575" data-name="Path 12575" d="M325.626,252.545l.172-.056a.048.048,0,0,0,.045-.058l-.314-.709c0-.021-.045-.03-.079-.019l-.172.054c-.034.011-.054.039-.045.058l.313.711C325.555,252.547,325.591,252.556,325.626,252.545Z" transform="translate(-305.441 -233.896)" fill="#407bff"/>
      <path id="Path_12576" data-name="Path 12576" d="M337.532,248.75l.172-.054c.034-.011.054-.036.045-.058l-.32-.719c0-.021-.045-.028-.079-.017l-.172.054a.047.047,0,0,0-.045.058l.314.711C337.455,248.752,337.491,248.76,337.532,248.75Z" transform="translate(-314.786 -230.91)" opacity="0.6"/>
      <path id="Path_12577" data-name="Path 12577" d="M313.723,256.311l.172-.054a.048.048,0,0,0,.047-.058l-.314-.711c-.011-.021-.045-.028-.079-.017l-.172.054a.047.047,0,0,0-.045.058l.314.711C313.655,256.313,313.689,256.322,313.723,256.311Z" transform="translate(-296.096 -236.854)" opacity="0.6"/>
      <path id="Path_12578" data-name="Path 12578" d="M325.626,252.545l.172-.056a.048.048,0,0,0,.045-.058l-.314-.709c0-.021-.045-.03-.079-.019l-.172.054c-.034.011-.054.039-.045.058l.313.711C325.555,252.547,325.591,252.556,325.626,252.545Z" transform="translate(-305.441 -233.896)" opacity="0.6"/>
      <path id="Path_12579" data-name="Path 12579" d="M329.8,203.47c.694,0,2.147,1.933,2.147,1.933l-1.9,2.538a6.142,6.142,0,0,1-1.209-2.489C328.839,204.514,329,203.479,329.8,203.47Z" transform="translate(-308.267 -196.023)" fill="#407bff"/>
      <path id="Path_12580" data-name="Path 12580" d="M329.8,203.47c.694,0,2.147,1.933,2.147,1.933l-1.9,2.538a6.142,6.142,0,0,1-1.209-2.489C328.839,204.514,329,203.479,329.8,203.47Z" transform="translate(-308.267 -196.023)" opacity="0.3"/>
      <path id="Path_12581" data-name="Path 12581" d="M386.477,218.625l-.017,1.155a.257.257,0,0,0,.047.148l.419.586.189-1.829-.215-.225a.249.249,0,0,0-.423.165Z" transform="translate(-353.522 -207.739)" fill="#e4897b"/>
    </g>
    <g id="freepik--blog-post--inject-205" transform="translate(15.899 61.715)">
      <path id="Path_12582" data-name="Path 12582" d="M214.67,142.92v51.965h31.973V142.92Zm29.2,49.882H215.561V145h28.308Z" transform="translate(-184.473 -130.756)" fill="#407bff"/>
      <path id="Path_12583" data-name="Path 12583" d="M214.67,142.92v51.965h31.973V142.92Zm29.2,49.882H215.561V145h28.308Z" transform="translate(-184.473 -130.756)" fill="#fff" opacity="0.6"/>
      <rect id="Rectangle_2184" data-name="Rectangle 2184" width="0.298" height="47.801" transform="translate(30.79 14.245)" fill="#fff"/>
      <rect id="Rectangle_2185" data-name="Rectangle 2185" width="0.298" height="47.801" transform="translate(30.79 14.245)" fill="#f0f0f0"/>
      <path id="Path_12584" data-name="Path 12584" d="M161.252,86.27H103.543a1.887,1.887,0,0,0-1.883,1.875v66.942a1.887,1.887,0,0,0,1.883,1.881h57.709a1.885,1.885,0,0,0,1.881-1.881V88.145A1.885,1.885,0,0,0,161.252,86.27Zm-34.434,14.245h28.308v47.8H126.818Z" transform="translate(-95.73 -86.27)" fill="#407bff"/>
      <path id="Path_12585" data-name="Path 12585" d="M161.252,86.27H103.543a1.887,1.887,0,0,0-1.883,1.875v66.942a1.887,1.887,0,0,0,1.883,1.881h57.709a1.885,1.885,0,0,0,1.881-1.881V88.145A1.885,1.885,0,0,0,161.252,86.27Zm-34.434,14.245h28.308v47.8H126.818Z" transform="translate(-95.73 -86.27)" opacity="0.5"/>
      <path id="Path_12586" data-name="Path 12586" d="M158.922,86.27H101.213a1.887,1.887,0,0,0-1.883,1.875v66.942a1.887,1.887,0,0,0,1.883,1.881h57.709a1.887,1.887,0,0,0,1.881-1.881V88.145A1.887,1.887,0,0,0,158.922,86.27Zm-33.927,14.245h28.3v47.8H124.988Z" transform="translate(-93.9 -86.27)" fill="#407bff"/>
      <path id="Path_12587" data-name="Path 12587" d="M158.922,86.27H101.213a1.887,1.887,0,0,0-1.883,1.875v66.942a1.887,1.887,0,0,0,1.883,1.881h57.709a1.887,1.887,0,0,0,1.881-1.881V88.145A1.887,1.887,0,0,0,158.922,86.27Zm-33.927,14.245h28.3v47.8H124.988Z" transform="translate(-93.9 -86.27)" opacity="0.2"/>
      <path id="Path_12588" data-name="Path 12588" d="M99.33,108.93v63.951a1.887,1.887,0,0,0,1.883,1.881h57.709a1.887,1.887,0,0,0,1.881-1.881V108.93Zm25.658,9.379H153.3v47.8H124.988Z" transform="translate(-93.9 -104.064)" fill="#407bff"/>
      <path id="Path_12589" data-name="Path 12589" d="M99.33,108.93v63.951a1.887,1.887,0,0,0,1.883,1.881h57.709a1.887,1.887,0,0,0,1.881-1.881V108.93Zm25.658,9.379H153.3v47.8H124.988Z" transform="translate(-93.9 -104.064)" fill="#fff" opacity="0.6"/>
      <path id="Path_12590" data-name="Path 12590" d="M101,120.58v60.829h60.769V120.58Zm53.618,54.679H126.3v-47.8h28.308Z" transform="translate(-95.211 -113.213)" fill="#fff"/>
      <circle id="Ellipse_731" data-name="Ellipse 731" cx="1.001" cy="1.001" r="1.001" transform="translate(61.773 1.445)" fill="#407bff" opacity="0.76"/>
      <circle id="Ellipse_732" data-name="Ellipse 732" cx="1.001" cy="1.001" r="1.001" transform="translate(58.228 1.445)" fill="#407bff" opacity="0.76"/>
      <path id="Path_12591" data-name="Path 12591" d="M328.7,94a1,1,0,1,0,1-1A1,1,0,0,0,328.7,94Z" transform="translate(-274.017 -91.555)" fill="#407bff" opacity="0.76"/>
      <rect id="Rectangle_2186" data-name="Rectangle 2186" width="61.471" height="0.251" transform="translate(66.903 4.99) rotate(180)" fill="#407bff"/>
      <path id="Path_12592" data-name="Path 12592" d="M390.655,114.713h-.215v-1.5h.215Zm0-2.811h-.215V107h.215Z" transform="translate(-322.5 -102.549)" fill="#407bff"/>
      <path id="Path_12593" data-name="Path 12593" d="M390.655,114.713h-.215v-1.5h.215Zm0-2.811h-.215V107h.215Z" transform="translate(-322.5 -102.549)" opacity="0.4"/>
      <rect id="Rectangle_2187" data-name="Rectangle 2187" width="6.053" height="3.008" transform="translate(21.941 27.595) rotate(180)" fill="#407bff"/>
      <rect id="Rectangle_2188" data-name="Rectangle 2188" width="6.053" height="3.008" transform="translate(21.941 27.595) rotate(180)" fill="#fff" opacity="0.6"/>
      <rect id="Rectangle_2189" data-name="Rectangle 2189" width="11.2" height="3.008" transform="translate(22.763 47.455) rotate(180)" fill="#407bff"/>
      <rect id="Rectangle_2190" data-name="Rectangle 2190" width="11.2" height="3.008" transform="translate(22.763 47.455) rotate(180)" fill="#fff" opacity="0.6"/>
      <rect id="Rectangle_2191" data-name="Rectangle 2191" width="23.163" height="3.008" transform="translate(24.657 12.699) rotate(180)" fill="#407bff"/>
      <rect id="Rectangle_2192" data-name="Rectangle 2192" width="23.163" height="3.008" transform="translate(24.657 12.699) rotate(180)" fill="#fff" opacity="0.6"/>
      <rect id="Rectangle_2193" data-name="Rectangle 2193" width="18.716" height="3.008" transform="translate(20.21 17.664) rotate(180)" fill="#407bff"/>
      <rect id="Rectangle_2194" data-name="Rectangle 2194" width="18.716" height="3.008" transform="translate(20.21 17.664) rotate(180)" fill="#fff" opacity="0.6"/>
      <rect id="Rectangle_2195" data-name="Rectangle 2195" width="21.269" height="3.008" transform="translate(22.763 22.628) rotate(180)" fill="#407bff"/>
      <rect id="Rectangle_2196" data-name="Rectangle 2196" width="21.269" height="3.008" transform="translate(22.763 22.628) rotate(180)" fill="#fff" opacity="0.6"/>
      <rect id="Rectangle_2197" data-name="Rectangle 2197" width="11.879" height="3.008" transform="translate(13.373 27.595) rotate(180)" fill="#407bff"/>
      <rect id="Rectangle_2198" data-name="Rectangle 2198" width="11.879" height="3.008" transform="translate(13.373 27.595) rotate(180)" fill="#fff" opacity="0.6"/>
      <rect id="Rectangle_2199" data-name="Rectangle 2199" width="21.269" height="3.008" transform="translate(22.763 32.56) rotate(180)" fill="#407bff"/>
      <rect id="Rectangle_2200" data-name="Rectangle 2200" width="21.269" height="3.008" transform="translate(22.763 32.56) rotate(180)" fill="#fff" opacity="0.6"/>
      <rect id="Rectangle_2201" data-name="Rectangle 2201" width="23.163" height="3.008" transform="translate(24.657 37.524) rotate(180)" fill="#407bff"/>
      <rect id="Rectangle_2202" data-name="Rectangle 2202" width="23.163" height="3.008" transform="translate(24.657 37.524) rotate(180)" fill="#fff" opacity="0.6"/>
      <rect id="Rectangle_2203" data-name="Rectangle 2203" width="16.328" height="3.008" transform="translate(17.822 42.491) rotate(180)" fill="#407bff"/>
      <rect id="Rectangle_2204" data-name="Rectangle 2204" width="16.328" height="3.008" transform="translate(17.822 42.491) rotate(180)" fill="#fff" opacity="0.6"/>
      <rect id="Rectangle_2205" data-name="Rectangle 2205" width="7.556" height="3.008" transform="translate(9.05 47.455) rotate(180)" fill="#407bff"/>
      <rect id="Rectangle_2206" data-name="Rectangle 2206" width="7.556" height="3.008" transform="translate(9.05 47.455) rotate(180)" fill="#fff" opacity="0.6"/>
      <circle id="Ellipse_733" data-name="Ellipse 733" cx="5.132" cy="5.132" r="5.132" transform="matrix(0.165, -0.986, 0.986, 0.165, 0, 61.046)" fill="#407bff"/>
      <circle id="Ellipse_734" data-name="Ellipse 734" cx="5.132" cy="5.132" r="5.132" transform="matrix(0.165, -0.986, 0.986, 0.165, 0, 61.046)" fill="#fff" opacity="0.6"/>
      <path id="Path_12594" data-name="Path 12594" d="M90.3,340.57a4.04,4.04,0,0,1-1.976-1.7s-.384-.021-.4.326a1.7,1.7,0,0,0,.507,1.267l-.586-.032a1.947,1.947,0,0,0-.621.067l-.2.052a.644.644,0,0,0-.453.773l.292,1.14a1.417,1.417,0,0,0,1.583,1.074c.6-.088,1.527-.215,1.688-.253h0l.429-.034.144-2.557Z" transform="translate(-83.867 -284.628)" fill="#fff"/>
      <rect id="Rectangle_2207" data-name="Rectangle 2207" width="2.107" height="3.367" rx="1.053" transform="translate(6.469 55.587)" fill="#407bff"/>
      <circle id="Ellipse_735" data-name="Ellipse 735" cx="5.132" cy="5.132" r="5.132" transform="translate(11.665 56.834) rotate(-45)" fill="#407bff"/>
      <circle id="Ellipse_736" data-name="Ellipse 736" cx="5.132" cy="5.132" r="5.132" transform="translate(11.665 56.834) rotate(-45)" fill="#fff" opacity="0.6"/>
      <path id="Path_12595" data-name="Path 12595" d="M153.428,340.463a1.808,1.808,0,0,0-2.557,0,1.808,1.808,0,1,0-2.557,2.557l2.557,2.557,2.557-2.557A1.812,1.812,0,0,0,153.428,340.463Z" transform="translate(-131.949 -285.464)" fill="#407bff"/>
      <path id="Path_12596" data-name="Path 12596" d="M207.75,142.92v51.965h32.764V142.92ZM238.435,192.8H210.127V145h28.308Z" transform="translate(-179.039 -130.756)" fill="#407bff"/>
      <path id="Path_12597" data-name="Path 12597" d="M207.75,142.92v51.965h32.764V142.92ZM238.435,192.8H210.127V145h28.308Z" transform="translate(-179.039 -130.756)" fill="#fff" opacity="0.8"/>
    </g>
  </g>
</svg>
