<svg xmlns="http://www.w3.org/2000/svg" width="99.173" height="73.896" viewBox="0 0 99.173 73.896">
  <g id="Container_ship-rafiki" data-name="Container ship-rafiki" opacity="0.75">
    <g id="freepik--background-complete--inject-235">
      <rect id="Rectangle_2273" data-name="Rectangle 2273" width="99.173" height="0.05" transform="translate(0 64.939)" fill="#ebebeb"/>
      <rect id="Rectangle_2274" data-name="Rectangle 2274" width="6.569" height="0.05" transform="translate(82.667 68.13)" fill="#ebebeb"/>
      <rect id="Rectangle_2275" data-name="Rectangle 2275" width="1.724" height="0.05" transform="translate(63.973 68.669)" fill="#ebebeb"/>
      <rect id="Rectangle_2276" data-name="Rectangle 2276" width="3.806" height="0.05" transform="translate(78.662 66.289)" fill="#ebebeb"/>
      <rect id="Rectangle_2277" data-name="Rectangle 2277" width="8.567" height="0.05" transform="translate(10.405 66.623)" fill="#ebebeb"/>
      <rect id="Rectangle_2278" data-name="Rectangle 2278" width="1.256" height="0.05" transform="translate(20.739 66.623)" fill="#ebebeb"/>
      <rect id="Rectangle_2279" data-name="Rectangle 2279" width="18.581" height="0.05" transform="translate(26.077 67.46)" fill="#ebebeb"/>
      <path id="Path_12676" data-name="Path 12676" d="M77.639,111.092h-38.3a1.133,1.133,0,0,1-1.131-1.133V56.123A1.133,1.133,0,0,1,39.341,55h38.3a1.133,1.133,0,0,1,1.133,1.133V109.96A1.133,1.133,0,0,1,77.639,111.092ZM39.341,55.04a1.083,1.083,0,0,0-1.081,1.083V109.96a1.083,1.083,0,0,0,1.081,1.083h38.3a1.085,1.085,0,0,0,1.083-1.083V56.123a1.085,1.085,0,0,0-1.083-1.083Z" transform="translate(-30.631 -55)" fill="#ebebeb"/>
      <path id="Path_12677" data-name="Path 12677" d="M293.933,111.092h-38.3a1.135,1.135,0,0,1-1.133-1.133V56.123A1.135,1.135,0,0,1,255.633,55h38.3a1.133,1.133,0,0,1,1.129,1.123V109.96A1.133,1.133,0,0,1,293.933,111.092Zm-38.3-56.053a1.085,1.085,0,0,0-1.083,1.083V109.96a1.085,1.085,0,0,0,1.083,1.083h38.3a1.085,1.085,0,0,0,1.083-1.083V56.123a1.085,1.085,0,0,0-1.083-1.083Z" transform="translate(-204.021 -55)" fill="#ebebeb"/>
      <path id="Path_12678" data-name="Path 12678" d="M99.173,316.2V329.17H0V316.2c2.787.458,3.644,1.563,7.789,1.563,5.224,0,5.224-1.761,10.459-1.761s5.224,1.755,10.449,1.755S33.917,316,39.14,316s5.224,1.755,10.449,1.755S54.813,316,60.039,316s5.224,1.755,10.449,1.755S75.713,316,80.937,316s5.226,1.755,10.451,1.755C95.531,317.757,96.4,316.655,99.173,316.2Z" transform="translate(0 -264.232)" fill="#e0e0e0" opacity="0.4"/>
      <path id="Path_12679" data-name="Path 12679" d="M100.579,135.231H56.11s2.025-3.57,5.885-3.57.24,1.983,3.231,1.983S71.3,127.23,80.8,127.23s1.64,4.824,6.559,4.824S108.031,127.779,100.579,135.231Z" transform="translate(-44.981 -112.903)" fill="#fafafa"/>
      <path id="Path_12680" data-name="Path 12680" d="M360.285,180.211H338.05a3.677,3.677,0,0,1,2.943-1.785c1.93,0,.119.992,1.615.992s3.039-3.207,7.789-3.207.821,2.412,3.281,2.412S364.012,176.484,360.285,180.211Z" transform="translate(-270.999 -152.168)" fill="#fafafa"/>
      <path id="Path_12681" data-name="Path 12681" d="M218.694,83.93c1.876,0,.117.962,1.571.962s2.959-3.122,7.583-3.122c4.544,0,1.115,2.656,3.269,2.747h.117c2.158,0,4.385-4.627,11.238-4.627s1.19,3.479,4.731,3.479,14.91-3.076,9.535,2.295H215.83A3.577,3.577,0,0,1,218.694,83.93Z" transform="translate(-173.021 -74.953)" fill="#fafafa"/>
      <path id="Path_12682" data-name="Path 12682" d="M75.518,85.689a4.69,4.69,0,0,0-.946-.268,4.286,4.286,0,0,0-.992-.046,4.214,4.214,0,0,0-.732.125,4.794,4.794,0,0,0-.547-.551,4.528,4.528,0,0,0-1.785-.928,3.871,3.871,0,0,0-.946-.141,3.967,3.967,0,0,1,.879.361,4.534,4.534,0,0,1,.78.53,4.271,4.271,0,0,1,1.125,1.48l.18.4.343-.212a3.657,3.657,0,0,1,1.678-.547,4.164,4.164,0,0,1,.914.036,3.928,3.928,0,0,1,.908.244A4.177,4.177,0,0,0,75.518,85.689Z" transform="translate(-55.771 -78.152)" fill="#e0e0e0"/>
      <path id="Path_12683" data-name="Path 12683" d="M110.809,109.835a3.636,3.636,0,0,0-.778-.087,3.358,3.358,0,0,0-.793.1,3.253,3.253,0,0,0-.558.2,3.955,3.955,0,0,0-.5-.361,3.745,3.745,0,0,0-.746-.339,3.656,3.656,0,0,0-.772-.159,3.152,3.152,0,0,0-.762.014,3.11,3.11,0,0,1,.736.163,3.542,3.542,0,0,1,.682.313,3.445,3.445,0,0,1,1.077,1.016l.2.282.242-.212a2.912,2.912,0,0,1,1.25-.653,3.372,3.372,0,0,1,.724-.091,3.064,3.064,0,0,1,.744.073A3.31,3.31,0,0,0,110.809,109.835Z" transform="translate(-84.895 -98.422)" fill="#e0e0e0"/>
      <path id="Path_12684" data-name="Path 12684" d="M387.041,134.953a5.28,5.28,0,0,0-1.039.4,4.794,4.794,0,0,0-.934.647,4.706,4.706,0,0,0-.575.615,5.34,5.34,0,0,0-.873-.123,5.169,5.169,0,0,0-2.245.381,4.532,4.532,0,0,0-.954.524,4.625,4.625,0,0,1,1.037-.284,5.1,5.1,0,0,1,1.071-.058,4.867,4.867,0,0,1,2.033.565l.428.226.165-.428a4.165,4.165,0,0,1,1.141-1.642,4.726,4.726,0,0,1,.853-.6,4.418,4.418,0,0,1,.992-.4A4.761,4.761,0,0,0,387.041,134.953Z" transform="translate(-304.965 -118.956)" fill="#e0e0e0"/>
    </g>
    <g id="freepik--Shadow--inject-235" transform="translate(11.129 69.405)">
      <ellipse id="freepik--path--inject-235" cx="38.457" cy="2.245" rx="38.457" ry="2.245" fill="#f5f5f5"/>
    </g>
    <g id="freepik--container-ship--inject-235" transform="translate(11.692 24.476)">
      <rect id="Rectangle_2280" data-name="Rectangle 2280" width="8.737" height="4.528" transform="translate(24.538 20.541) rotate(180)" fill="#407bff"/>
      <rect id="Rectangle_2281" data-name="Rectangle 2281" width="8.737" height="4.528" transform="translate(24.538 20.541) rotate(180)" fill="#fafafa" opacity="0.4"/>
      <rect id="Rectangle_2282" data-name="Rectangle 2282" width="2.245" height="4.528" transform="translate(13.555 16.011)" fill="#407bff"/>
      <rect id="Rectangle_2283" data-name="Rectangle 2283" width="2.245" height="4.528" transform="translate(13.555 16.011)" fill="#fafafa" opacity="0.4"/>
      <rect id="Rectangle_2284" data-name="Rectangle 2284" width="2.245" height="4.528" transform="translate(13.555 16.011)" opacity="0.2"/>
      <rect id="Rectangle_2285" data-name="Rectangle 2285" width="0.22" height="4.159" transform="translate(24.391 20.356) rotate(180)" opacity="0.2"/>
      <rect id="Rectangle_2286" data-name="Rectangle 2286" width="0.22" height="4.159" transform="translate(23.905 20.356) rotate(180)" opacity="0.2"/>
      <rect id="Rectangle_2287" data-name="Rectangle 2287" width="0.22" height="4.159" transform="translate(23.423 20.356) rotate(180)" opacity="0.2"/>
      <rect id="Rectangle_2288" data-name="Rectangle 2288" width="0.22" height="4.159" transform="translate(22.939 20.356) rotate(180)" opacity="0.2"/>
      <rect id="Rectangle_2289" data-name="Rectangle 2289" width="0.22" height="4.159" transform="translate(22.455 20.356) rotate(180)" opacity="0.2"/>
      <rect id="Rectangle_2290" data-name="Rectangle 2290" width="0.22" height="4.159" transform="translate(21.973 20.356) rotate(180)" opacity="0.2"/>
      <rect id="Rectangle_2291" data-name="Rectangle 2291" width="0.22" height="4.159" transform="translate(21.487 20.356) rotate(180)" opacity="0.2"/>
      <rect id="Rectangle_2292" data-name="Rectangle 2292" width="0.22" height="4.159" transform="translate(21.005 20.356) rotate(180)" opacity="0.2"/>
      <rect id="Rectangle_2293" data-name="Rectangle 2293" width="0.22" height="4.159" transform="translate(20.521 20.356) rotate(180)" opacity="0.2"/>
      <rect id="Rectangle_2294" data-name="Rectangle 2294" width="0.22" height="4.159" transform="translate(20.037 20.356) rotate(180)" opacity="0.2"/>
      <rect id="Rectangle_2295" data-name="Rectangle 2295" width="0.22" height="4.159" transform="translate(19.555 20.356) rotate(180)" opacity="0.2"/>
      <rect id="Rectangle_2296" data-name="Rectangle 2296" width="0.22" height="4.159" transform="translate(19.069 20.356) rotate(180)" opacity="0.2"/>
      <rect id="Rectangle_2297" data-name="Rectangle 2297" width="0.22" height="4.159" transform="translate(18.587 20.356) rotate(180)" opacity="0.2"/>
      <rect id="Rectangle_2298" data-name="Rectangle 2298" width="0.22" height="4.159" transform="translate(18.103 20.356) rotate(180)" opacity="0.2"/>
      <rect id="Rectangle_2299" data-name="Rectangle 2299" width="0.22" height="4.159" transform="translate(17.62 20.356) rotate(180)" opacity="0.2"/>
      <rect id="Rectangle_2300" data-name="Rectangle 2300" width="0.22" height="4.159" transform="translate(17.138 20.356) rotate(180)" opacity="0.2"/>
      <rect id="Rectangle_2301" data-name="Rectangle 2301" width="0.22" height="4.159" transform="translate(16.652 20.356) rotate(180)" opacity="0.2"/>
      <rect id="Rectangle_2302" data-name="Rectangle 2302" width="0.22" height="4.159" transform="translate(16.168 20.356) rotate(180)" opacity="0.2"/>
      <rect id="Rectangle_2303" data-name="Rectangle 2303" width="8.737" height="4.528" transform="translate(14.188 20.541) rotate(180)" fill="#407bff"/>
      <rect id="Rectangle_2304" data-name="Rectangle 2304" width="2.245" height="4.528" transform="translate(3.206 16.011)" fill="#407bff"/>
      <rect id="Rectangle_2305" data-name="Rectangle 2305" width="2.245" height="4.528" transform="translate(3.206 16.011)" opacity="0.2"/>
      <rect id="Rectangle_2306" data-name="Rectangle 2306" width="0.22" height="4.159" transform="translate(14.039 20.356) rotate(180)" opacity="0.2"/>
      <rect id="Rectangle_2307" data-name="Rectangle 2307" width="0.22" height="4.159" transform="translate(13.555 20.356) rotate(180)" opacity="0.2"/>
      <rect id="Rectangle_2308" data-name="Rectangle 2308" width="0.22" height="4.159" transform="translate(13.073 20.356) rotate(180)" opacity="0.2"/>
      <rect id="Rectangle_2309" data-name="Rectangle 2309" width="0.22" height="4.159" transform="translate(12.587 20.356) rotate(180)" opacity="0.2"/>
      <rect id="Rectangle_2310" data-name="Rectangle 2310" width="0.22" height="4.159" transform="translate(12.106 20.356) rotate(180)" opacity="0.2"/>
      <rect id="Rectangle_2311" data-name="Rectangle 2311" width="0.22" height="4.159" transform="translate(11.622 20.356) rotate(180)" opacity="0.2"/>
      <rect id="Rectangle_2312" data-name="Rectangle 2312" width="0.22" height="4.159" transform="translate(11.138 20.356) rotate(180)" opacity="0.2"/>
      <rect id="Rectangle_2313" data-name="Rectangle 2313" width="0.22" height="4.159" transform="translate(10.656 20.356) rotate(180)" opacity="0.2"/>
      <rect id="Rectangle_2314" data-name="Rectangle 2314" width="0.22" height="4.159" transform="translate(10.17 20.356) rotate(180)" opacity="0.2"/>
      <rect id="Rectangle_2315" data-name="Rectangle 2315" width="0.22" height="4.159" transform="translate(9.686 20.356) rotate(180)" opacity="0.2"/>
      <rect id="Rectangle_2316" data-name="Rectangle 2316" width="0.22" height="4.159" transform="translate(9.204 20.356) rotate(180)" opacity="0.2"/>
      <rect id="Rectangle_2317" data-name="Rectangle 2317" width="0.22" height="4.159" transform="translate(8.72 20.356) rotate(180)" opacity="0.2"/>
      <rect id="Rectangle_2318" data-name="Rectangle 2318" width="0.22" height="4.159" transform="translate(8.238 20.356) rotate(180)" opacity="0.2"/>
      <rect id="Rectangle_2319" data-name="Rectangle 2319" width="0.22" height="4.159" transform="translate(7.752 20.356) rotate(180)" opacity="0.2"/>
      <rect id="Rectangle_2320" data-name="Rectangle 2320" width="0.22" height="4.159" transform="translate(7.268 20.356) rotate(180)" opacity="0.2"/>
      <rect id="Rectangle_2321" data-name="Rectangle 2321" width="0.22" height="4.159" transform="translate(6.786 20.356) rotate(180)" opacity="0.2"/>
      <rect id="Rectangle_2322" data-name="Rectangle 2322" width="0.22" height="4.159" transform="translate(6.302 20.356) rotate(180)" opacity="0.2"/>
      <rect id="Rectangle_2323" data-name="Rectangle 2323" width="0.22" height="4.159" transform="translate(5.82 20.356) rotate(180)" opacity="0.2"/>
      <rect id="Rectangle_2324" data-name="Rectangle 2324" width="8.737" height="4.528" transform="translate(23.112 25.067) rotate(180)" fill="#407bff"/>
      <rect id="Rectangle_2325" data-name="Rectangle 2325" width="2.245" height="4.528" transform="translate(12.129 20.539)" fill="#407bff"/>
      <rect id="Rectangle_2326" data-name="Rectangle 2326" width="2.245" height="4.528" transform="translate(12.129 20.539)" opacity="0.2"/>
      <rect id="Rectangle_2327" data-name="Rectangle 2327" width="0.22" height="4.159" transform="translate(22.963 24.883) rotate(180)" opacity="0.2"/>
      <rect id="Rectangle_2328" data-name="Rectangle 2328" width="0.22" height="4.159" transform="translate(22.479 24.883) rotate(180)" opacity="0.2"/>
      <rect id="Rectangle_2329" data-name="Rectangle 2329" width="0.22" height="4.159" transform="translate(21.995 24.883) rotate(180)" opacity="0.2"/>
      <rect id="Rectangle_2330" data-name="Rectangle 2330" width="0.22" height="4.159" transform="translate(21.513 24.883) rotate(180)" opacity="0.2"/>
      <rect id="Rectangle_2331" data-name="Rectangle 2331" width="0.22" height="4.159" transform="translate(21.027 24.883) rotate(180)" opacity="0.2"/>
      <rect id="Rectangle_2332" data-name="Rectangle 2332" width="0.22" height="4.159" transform="translate(20.545 24.883) rotate(180)" opacity="0.2"/>
      <rect id="Rectangle_2333" data-name="Rectangle 2333" width="0.22" height="4.159" transform="translate(20.061 24.883) rotate(180)" opacity="0.2"/>
      <rect id="Rectangle_2334" data-name="Rectangle 2334" width="0.22" height="4.159" transform="translate(19.577 24.883) rotate(180)" opacity="0.2"/>
      <rect id="Rectangle_2335" data-name="Rectangle 2335" width="0.22" height="4.159" transform="translate(19.095 24.883) rotate(180)" opacity="0.2"/>
      <rect id="Rectangle_2336" data-name="Rectangle 2336" width="0.22" height="4.159" transform="translate(18.609 24.883) rotate(180)" opacity="0.2"/>
      <rect id="Rectangle_2337" data-name="Rectangle 2337" width="0.22" height="4.159" transform="translate(18.127 24.883) rotate(180)" opacity="0.2"/>
      <rect id="Rectangle_2338" data-name="Rectangle 2338" width="0.22" height="4.159" transform="translate(17.643 24.883) rotate(180)" opacity="0.2"/>
      <rect id="Rectangle_2339" data-name="Rectangle 2339" width="0.22" height="4.159" transform="translate(17.159 24.883) rotate(180)" opacity="0.2"/>
      <rect id="Rectangle_2340" data-name="Rectangle 2340" width="0.22" height="4.159" transform="translate(16.677 24.883) rotate(180)" opacity="0.2"/>
      <rect id="Rectangle_2341" data-name="Rectangle 2341" width="0.22" height="4.159" transform="translate(16.191 24.883) rotate(180)" opacity="0.2"/>
      <rect id="Rectangle_2342" data-name="Rectangle 2342" width="0.22" height="4.159" transform="translate(15.707 24.883) rotate(180)" opacity="0.2"/>
      <rect id="Rectangle_2343" data-name="Rectangle 2343" width="0.22" height="4.159" transform="translate(15.225 24.883) rotate(180)" opacity="0.2"/>
      <rect id="Rectangle_2344" data-name="Rectangle 2344" width="0.22" height="4.159" transform="translate(14.742 24.883) rotate(180)" opacity="0.2"/>
      <rect id="Rectangle_2345" data-name="Rectangle 2345" width="8.737" height="4.528" transform="translate(13.401 25.067) rotate(180)" fill="#407bff"/>
      <rect id="Rectangle_2346" data-name="Rectangle 2346" width="8.737" height="4.528" transform="translate(13.401 25.067) rotate(180)" fill="#fafafa" opacity="0.4"/>
      <rect id="Rectangle_2347" data-name="Rectangle 2347" width="2.245" height="4.528" transform="translate(2.418 20.539)" fill="#407bff"/>
      <rect id="Rectangle_2348" data-name="Rectangle 2348" width="2.245" height="4.528" transform="translate(2.418 20.539)" fill="#fafafa" opacity="0.4"/>
      <rect id="Rectangle_2349" data-name="Rectangle 2349" width="2.245" height="4.528" transform="translate(2.418 20.539)" opacity="0.2"/>
      <rect id="Rectangle_2350" data-name="Rectangle 2350" width="0.22" height="4.159" transform="translate(13.252 24.883) rotate(180)" opacity="0.2"/>
      <rect id="Rectangle_2351" data-name="Rectangle 2351" width="0.22" height="4.159" transform="translate(12.768 24.883) rotate(180)" opacity="0.2"/>
      <rect id="Rectangle_2352" data-name="Rectangle 2352" width="0.22" height="4.159" transform="translate(12.284 24.883) rotate(180)" opacity="0.2"/>
      <rect id="Rectangle_2353" data-name="Rectangle 2353" width="0.22" height="4.159" transform="translate(11.802 24.883) rotate(180)" opacity="0.2"/>
      <rect id="Rectangle_2354" data-name="Rectangle 2354" width="0.22" height="4.159" transform="translate(11.316 24.883) rotate(180)" opacity="0.2"/>
      <rect id="Rectangle_2355" data-name="Rectangle 2355" width="0.22" height="4.159" transform="translate(10.834 24.883) rotate(180)" opacity="0.2"/>
      <rect id="Rectangle_2356" data-name="Rectangle 2356" width="0.22" height="4.159" transform="translate(10.35 24.883) rotate(180)" opacity="0.2"/>
      <rect id="Rectangle_2357" data-name="Rectangle 2357" width="0.22" height="4.159" transform="translate(9.866 24.883) rotate(180)" opacity="0.2"/>
      <rect id="Rectangle_2358" data-name="Rectangle 2358" width="0.22" height="4.159" transform="translate(9.384 24.883) rotate(180)" opacity="0.2"/>
      <rect id="Rectangle_2359" data-name="Rectangle 2359" width="0.22" height="4.159" transform="translate(8.898 24.883) rotate(180)" opacity="0.2"/>
      <rect id="Rectangle_2360" data-name="Rectangle 2360" width="0.22" height="4.159" transform="translate(8.416 24.883) rotate(180)" opacity="0.2"/>
      <rect id="Rectangle_2361" data-name="Rectangle 2361" width="0.22" height="4.159" transform="translate(7.932 24.883) rotate(180)" opacity="0.2"/>
      <rect id="Rectangle_2362" data-name="Rectangle 2362" width="0.22" height="4.159" transform="translate(7.448 24.883) rotate(180)" opacity="0.2"/>
      <rect id="Rectangle_2363" data-name="Rectangle 2363" width="0.22" height="4.159" transform="translate(6.966 24.883) rotate(180)" opacity="0.2"/>
      <rect id="Rectangle_2364" data-name="Rectangle 2364" width="0.22" height="4.159" transform="translate(6.48 24.883) rotate(180)" opacity="0.2"/>
      <rect id="Rectangle_2365" data-name="Rectangle 2365" width="0.22" height="4.159" transform="translate(5.996 24.883) rotate(180)" opacity="0.2"/>
      <rect id="Rectangle_2366" data-name="Rectangle 2366" width="0.22" height="4.159" transform="translate(5.514 24.883) rotate(180)" opacity="0.2"/>
      <rect id="Rectangle_2367" data-name="Rectangle 2367" width="0.22" height="4.159" transform="translate(5.03 24.883) rotate(180)" opacity="0.2"/>
      <rect id="Rectangle_2368" data-name="Rectangle 2368" width="4.098" height="6.363" transform="translate(21.223)" fill="#407bff"/>
      <rect id="Rectangle_2369" data-name="Rectangle 2369" width="4.098" height="0.657" transform="translate(21.223 0.647)" fill="#fff"/>
      <rect id="Rectangle_2370" data-name="Rectangle 2370" width="4.098" height="0.506" transform="translate(21.223 2.061)" fill="#fff"/>
      <rect id="Rectangle_2371" data-name="Rectangle 2371" width="4.098" height="6.363" transform="translate(13.476)" fill="#407bff"/>
      <rect id="Rectangle_2372" data-name="Rectangle 2372" width="4.098" height="0.657" transform="translate(13.476 0.647)" fill="#fff"/>
      <rect id="Rectangle_2373" data-name="Rectangle 2373" width="4.098" height="0.506" transform="translate(13.476 2.061)" fill="#fff"/>
      <rect id="Rectangle_2374" data-name="Rectangle 2374" width="5.193" height="16.024" transform="translate(9.128 9.043)" fill="#e0e0e0"/>
      <rect id="Rectangle_2375" data-name="Rectangle 2375" width="3.517" height="0.345" transform="translate(9.706 11.23)" fill="#fff" opacity="0.7"/>
      <rect id="Rectangle_2376" data-name="Rectangle 2376" width="3.517" height="0.345" transform="translate(9.706 12.569)" fill="#fff" opacity="0.7"/>
      <rect id="Rectangle_2377" data-name="Rectangle 2377" width="3.517" height="0.345" transform="translate(9.706 13.906)" fill="#fff" opacity="0.7"/>
      <rect id="Rectangle_2378" data-name="Rectangle 2378" width="3.517" height="0.345" transform="translate(9.706 15.243)" fill="#fff" opacity="0.7"/>
      <rect id="Rectangle_2379" data-name="Rectangle 2379" width="3.517" height="0.345" transform="translate(9.706 16.58)" fill="#fff" opacity="0.7"/>
      <rect id="Rectangle_2380" data-name="Rectangle 2380" width="3.517" height="0.345" transform="translate(9.706 17.919)" fill="#fff" opacity="0.7"/>
      <rect id="Rectangle_2381" data-name="Rectangle 2381" width="3.517" height="0.345" transform="translate(9.706 19.255)" fill="#fff" opacity="0.7"/>
      <rect id="Rectangle_2382" data-name="Rectangle 2382" width="3.517" height="0.345" transform="translate(9.706 20.592)" fill="#fff" opacity="0.7"/>
      <rect id="Rectangle_2383" data-name="Rectangle 2383" width="14.303" height="16.024" transform="translate(28.624 25.065) rotate(180)" fill="#fafafa"/>
      <g id="Group_11103" data-name="Group 11103" transform="translate(15.894 10.804)" opacity="0.8">
        <rect id="Rectangle_2384" data-name="Rectangle 2384" width="0.19" height="0.793" opacity="0.2"/>
        <rect id="Rectangle_2385" data-name="Rectangle 2385" width="0.19" height="0.793" transform="translate(2.741)" opacity="0.2"/>
        <rect id="Rectangle_2386" data-name="Rectangle 2386" width="0.19" height="0.793" transform="translate(5.482)" opacity="0.2"/>
        <rect id="Rectangle_2387" data-name="Rectangle 2387" width="0.19" height="0.793" transform="translate(8.223)" opacity="0.2"/>
        <rect id="Rectangle_2388" data-name="Rectangle 2388" width="0.19" height="0.793" transform="translate(10.965)" opacity="0.2"/>
        <rect id="Rectangle_2389" data-name="Rectangle 2389" width="0.19" height="0.793" transform="translate(0 2.511)" opacity="0.2"/>
        <rect id="Rectangle_2390" data-name="Rectangle 2390" width="0.19" height="0.793" transform="translate(2.741 2.511)" opacity="0.2"/>
        <rect id="Rectangle_2391" data-name="Rectangle 2391" width="0.19" height="0.793" transform="translate(5.482 2.511)" opacity="0.2"/>
        <rect id="Rectangle_2392" data-name="Rectangle 2392" width="0.19" height="0.793" transform="translate(8.223 2.511)" opacity="0.2"/>
        <rect id="Rectangle_2393" data-name="Rectangle 2393" width="0.19" height="0.793" transform="translate(10.965 2.511)" opacity="0.2"/>
        <rect id="Rectangle_2394" data-name="Rectangle 2394" width="0.19" height="0.793" transform="translate(0 5.02)" opacity="0.2"/>
        <rect id="Rectangle_2395" data-name="Rectangle 2395" width="0.19" height="0.793" transform="translate(2.741 5.02)" opacity="0.2"/>
        <rect id="Rectangle_2396" data-name="Rectangle 2396" width="0.19" height="0.793" transform="translate(5.482 5.02)" opacity="0.2"/>
        <rect id="Rectangle_2397" data-name="Rectangle 2397" width="0.19" height="0.793" transform="translate(8.223 5.02)" opacity="0.2"/>
        <rect id="Rectangle_2398" data-name="Rectangle 2398" width="0.19" height="0.793" transform="translate(10.965 5.02)" opacity="0.2"/>
        <rect id="Rectangle_2399" data-name="Rectangle 2399" width="0.19" height="0.793" transform="translate(0 7.531)" opacity="0.2"/>
        <rect id="Rectangle_2400" data-name="Rectangle 2400" width="0.19" height="0.793" transform="translate(2.741 7.531)" opacity="0.2"/>
        <rect id="Rectangle_2401" data-name="Rectangle 2401" width="0.19" height="0.793" transform="translate(5.482 7.531)" opacity="0.2"/>
        <rect id="Rectangle_2402" data-name="Rectangle 2402" width="0.19" height="0.793" transform="translate(8.223 7.531)" opacity="0.2"/>
        <rect id="Rectangle_2403" data-name="Rectangle 2403" width="0.19" height="0.793" transform="translate(10.965 7.531)" opacity="0.2"/>
        <rect id="Rectangle_2404" data-name="Rectangle 2404" width="0.19" height="0.793" transform="translate(0 10.04)" opacity="0.2"/>
        <rect id="Rectangle_2405" data-name="Rectangle 2405" width="0.19" height="0.793" transform="translate(2.741 10.04)" opacity="0.2"/>
        <rect id="Rectangle_2406" data-name="Rectangle 2406" width="0.19" height="0.793" transform="translate(5.482 10.04)" opacity="0.2"/>
        <rect id="Rectangle_2407" data-name="Rectangle 2407" width="0.19" height="0.793" transform="translate(8.223 10.04)" opacity="0.2"/>
        <rect id="Rectangle_2408" data-name="Rectangle 2408" width="0.19" height="0.793" transform="translate(10.965 10.04)" opacity="0.2"/>
        <rect id="Rectangle_2409" data-name="Rectangle 2409" width="0.19" height="0.793" transform="translate(0 12.551)" opacity="0.2"/>
        <rect id="Rectangle_2410" data-name="Rectangle 2410" width="0.19" height="0.793" transform="translate(2.741 12.551)" opacity="0.2"/>
        <rect id="Rectangle_2411" data-name="Rectangle 2411" width="0.19" height="0.793" transform="translate(5.482 12.551)" opacity="0.2"/>
        <rect id="Rectangle_2412" data-name="Rectangle 2412" width="0.19" height="0.793" transform="translate(8.223 12.551)" opacity="0.2"/>
        <rect id="Rectangle_2413" data-name="Rectangle 2413" width="0.19" height="0.793" transform="translate(10.965 12.551)" opacity="0.2"/>
      </g>
      <rect id="Rectangle_2414" data-name="Rectangle 2414" width="4.284" height="3.59" transform="translate(10.834 5.451)" fill="#e0e0e0"/>
      <rect id="Rectangle_2415" data-name="Rectangle 2415" width="11.798" height="3.59" transform="translate(26.916 9.043) rotate(180)" fill="#fafafa"/>
      <rect id="Rectangle_2416" data-name="Rectangle 2416" width="16.082" height="0.718" transform="translate(26.918 6.171) rotate(180)" opacity="0.1" style="mix-blend-mode: multiply;isolation: isolate"/>
      <rect id="Rectangle_2417" data-name="Rectangle 2417" width="0.649" height="0.649" transform="translate(15.93 6.74)" opacity="0.2"/>
      <rect id="Rectangle_2418" data-name="Rectangle 2418" width="0.649" height="0.649" transform="translate(16.882 6.74)" opacity="0.2"/>
      <rect id="Rectangle_2419" data-name="Rectangle 2419" width="0.649" height="0.649" transform="translate(17.836 6.74)" opacity="0.2"/>
      <rect id="Rectangle_2420" data-name="Rectangle 2420" width="0.649" height="0.649" transform="translate(18.788 6.74)" opacity="0.2"/>
      <rect id="Rectangle_2421" data-name="Rectangle 2421" width="0.649" height="0.649" transform="translate(19.74 6.74)" opacity="0.2"/>
      <rect id="Rectangle_2422" data-name="Rectangle 2422" width="0.649" height="0.649" transform="translate(20.692 6.74)" opacity="0.2"/>
      <rect id="Rectangle_2423" data-name="Rectangle 2423" width="0.649" height="0.649" transform="translate(21.646 6.74)" opacity="0.2"/>
      <rect id="Rectangle_2424" data-name="Rectangle 2424" width="0.649" height="0.649" transform="translate(22.598 6.74)" opacity="0.2"/>
      <rect id="Rectangle_2425" data-name="Rectangle 2425" width="0.649" height="0.649" transform="translate(23.55 6.74)" opacity="0.2"/>
      <rect id="Rectangle_2426" data-name="Rectangle 2426" width="0.649" height="0.649" transform="translate(24.502 6.74)" opacity="0.2"/>
      <rect id="Rectangle_2427" data-name="Rectangle 2427" width="0.649" height="0.649" transform="translate(25.456 6.74)" opacity="0.2"/>
      <rect id="Rectangle_2428" data-name="Rectangle 2428" width="0.649" height="0.649" transform="translate(15.93 7.682)" opacity="0.2"/>
      <rect id="Rectangle_2429" data-name="Rectangle 2429" width="0.649" height="0.649" transform="translate(16.882 7.682)" opacity="0.2"/>
      <rect id="Rectangle_2430" data-name="Rectangle 2430" width="0.649" height="0.649" transform="translate(17.836 7.682)" opacity="0.2"/>
      <rect id="Rectangle_2431" data-name="Rectangle 2431" width="0.649" height="0.649" transform="translate(18.788 7.682)" opacity="0.2"/>
      <rect id="Rectangle_2432" data-name="Rectangle 2432" width="0.649" height="0.649" transform="translate(19.74 7.682)" opacity="0.2"/>
      <rect id="Rectangle_2433" data-name="Rectangle 2433" width="0.649" height="0.649" transform="translate(20.692 7.682)" opacity="0.2"/>
      <rect id="Rectangle_2434" data-name="Rectangle 2434" width="0.649" height="0.649" transform="translate(21.646 7.682)" opacity="0.2"/>
      <rect id="Rectangle_2435" data-name="Rectangle 2435" width="0.649" height="0.649" transform="translate(22.598 7.682)" opacity="0.2"/>
      <rect id="Rectangle_2436" data-name="Rectangle 2436" width="0.649" height="0.649" transform="translate(23.55 7.682)" opacity="0.2"/>
      <rect id="Rectangle_2437" data-name="Rectangle 2437" width="0.649" height="0.649" transform="translate(24.502 7.682)" opacity="0.2"/>
      <rect id="Rectangle_2438" data-name="Rectangle 2438" width="0.649" height="0.649" transform="translate(25.456 7.682)" opacity="0.2"/>
      <path id="Path_12685" data-name="Path 12685" d="M107.506,195.8H101.54l.881,2h5.086Z" transform="translate(-93.092 -192.349)" fill="#e0e0e0"/>
      <path id="Path_12686" data-name="Path 12686" d="M131.62,195.8h14.888l-.881,2H131.62Z" transform="translate(-117.206 -192.349)" fill="#fafafa"/>
      <rect id="Rectangle_2439" data-name="Rectangle 2439" width="11.685" height="4.528" transform="translate(52.981 25.067) rotate(180)" fill="#407bff"/>
      <rect id="Rectangle_2440" data-name="Rectangle 2440" width="11.685" height="4.528" transform="translate(52.981 25.067) rotate(180)" fill="#fafafa" opacity="0.4"/>
      <rect id="Rectangle_2441" data-name="Rectangle 2441" width="3.001" height="4.528" transform="translate(38.295 20.539)" fill="#407bff"/>
      <rect id="Rectangle_2442" data-name="Rectangle 2442" width="3.001" height="4.528" transform="translate(38.295 20.539)" fill="#fafafa" opacity="0.4"/>
      <rect id="Rectangle_2443" data-name="Rectangle 2443" width="3.001" height="4.528" transform="translate(38.295 20.539)" opacity="0.2"/>
      <rect id="Rectangle_2444" data-name="Rectangle 2444" width="0.294" height="4.159" transform="translate(52.782 24.883) rotate(180)" opacity="0.2"/>
      <rect id="Rectangle_2445" data-name="Rectangle 2445" width="0.294" height="4.159" transform="translate(52.136 24.883) rotate(180)" opacity="0.2"/>
      <rect id="Rectangle_2446" data-name="Rectangle 2446" width="0.294" height="4.159" transform="translate(51.489 24.883) rotate(180)" opacity="0.2"/>
      <rect id="Rectangle_2447" data-name="Rectangle 2447" width="0.294" height="4.159" transform="translate(50.843 24.883) rotate(180)" opacity="0.2"/>
      <rect id="Rectangle_2448" data-name="Rectangle 2448" width="0.294" height="4.159" transform="translate(50.196 24.883) rotate(180)" opacity="0.2"/>
      <rect id="Rectangle_2449" data-name="Rectangle 2449" width="0.294" height="4.159" transform="translate(49.549 24.883) rotate(180)" opacity="0.2"/>
      <rect id="Rectangle_2450" data-name="Rectangle 2450" width="0.294" height="4.159" transform="translate(48.903 24.883) rotate(180)" opacity="0.2"/>
      <rect id="Rectangle_2451" data-name="Rectangle 2451" width="0.294" height="4.159" transform="translate(48.256 24.883) rotate(180)" opacity="0.2"/>
      <rect id="Rectangle_2452" data-name="Rectangle 2452" width="0.294" height="4.159" transform="translate(47.609 24.883) rotate(180)" opacity="0.2"/>
      <rect id="Rectangle_2453" data-name="Rectangle 2453" width="0.294" height="4.159" transform="translate(46.963 24.883) rotate(180)" opacity="0.2"/>
      <rect id="Rectangle_2454" data-name="Rectangle 2454" width="0.294" height="4.159" transform="translate(46.316 24.883) rotate(180)" opacity="0.2"/>
      <rect id="Rectangle_2455" data-name="Rectangle 2455" width="0.294" height="4.159" transform="translate(45.67 24.883) rotate(180)" opacity="0.2"/>
      <rect id="Rectangle_2456" data-name="Rectangle 2456" width="0.294" height="4.159" transform="translate(45.023 24.883) rotate(180)" opacity="0.2"/>
      <rect id="Rectangle_2457" data-name="Rectangle 2457" width="0.294" height="4.159" transform="translate(44.376 24.883) rotate(180)" opacity="0.2"/>
      <rect id="Rectangle_2458" data-name="Rectangle 2458" width="0.294" height="4.159" transform="translate(43.73 24.883) rotate(180)" opacity="0.2"/>
      <rect id="Rectangle_2459" data-name="Rectangle 2459" width="0.294" height="4.159" transform="translate(43.083 24.883) rotate(180)" opacity="0.2"/>
      <rect id="Rectangle_2460" data-name="Rectangle 2460" width="0.294" height="4.159" transform="translate(42.437 24.883) rotate(180)" opacity="0.2"/>
      <rect id="Rectangle_2461" data-name="Rectangle 2461" width="0.294" height="4.159" transform="translate(41.79 24.883) rotate(180)" opacity="0.2"/>
      <rect id="Rectangle_2462" data-name="Rectangle 2462" width="11.685" height="4.528" transform="translate(39.14 25.067) rotate(180)" fill="#407bff"/>
      <rect id="Rectangle_2463" data-name="Rectangle 2463" width="3.001" height="4.528" transform="translate(24.455 20.539)" fill="#407bff"/>
      <rect id="Rectangle_2464" data-name="Rectangle 2464" width="3.001" height="4.528" transform="translate(24.455 20.539)" opacity="0.2"/>
      <rect id="Rectangle_2465" data-name="Rectangle 2465" width="0.294" height="4.159" transform="translate(38.942 24.883) rotate(180)" opacity="0.2"/>
      <rect id="Rectangle_2466" data-name="Rectangle 2466" width="0.294" height="4.159" transform="translate(38.295 24.883) rotate(180)" opacity="0.2"/>
      <rect id="Rectangle_2467" data-name="Rectangle 2467" width="0.294" height="4.159" transform="translate(37.649 24.883) rotate(180)" opacity="0.2"/>
      <rect id="Rectangle_2468" data-name="Rectangle 2468" width="0.294" height="4.159" transform="translate(37.002 24.883) rotate(180)" opacity="0.2"/>
      <rect id="Rectangle_2469" data-name="Rectangle 2469" width="0.294" height="4.159" transform="translate(36.355 24.883) rotate(180)" opacity="0.2"/>
      <rect id="Rectangle_2470" data-name="Rectangle 2470" width="0.294" height="4.159" transform="translate(35.709 24.883) rotate(180)" opacity="0.2"/>
      <rect id="Rectangle_2471" data-name="Rectangle 2471" width="0.294" height="4.159" transform="translate(35.062 24.883) rotate(180)" opacity="0.2"/>
      <rect id="Rectangle_2472" data-name="Rectangle 2472" width="0.294" height="4.159" transform="translate(34.415 24.883) rotate(180)" opacity="0.2"/>
      <rect id="Rectangle_2473" data-name="Rectangle 2473" width="0.294" height="4.159" transform="translate(33.769 24.883) rotate(180)" opacity="0.2"/>
      <rect id="Rectangle_2474" data-name="Rectangle 2474" width="0.294" height="4.159" transform="translate(33.122 24.883) rotate(180)" opacity="0.2"/>
      <rect id="Rectangle_2475" data-name="Rectangle 2475" width="0.294" height="4.159" transform="translate(32.476 24.883) rotate(180)" opacity="0.2"/>
      <rect id="Rectangle_2476" data-name="Rectangle 2476" width="0.294" height="4.159" transform="translate(31.829 24.883) rotate(180)" opacity="0.2"/>
      <rect id="Rectangle_2477" data-name="Rectangle 2477" width="0.294" height="4.159" transform="translate(31.182 24.883) rotate(180)" opacity="0.2"/>
      <rect id="Rectangle_2478" data-name="Rectangle 2478" width="0.294" height="4.159" transform="translate(30.536 24.883) rotate(180)" opacity="0.2"/>
      <rect id="Rectangle_2479" data-name="Rectangle 2479" width="0.294" height="4.159" transform="translate(29.889 24.883) rotate(180)" opacity="0.2"/>
      <rect id="Rectangle_2480" data-name="Rectangle 2480" width="0.294" height="4.159" transform="translate(29.243 24.883) rotate(180)" opacity="0.2"/>
      <rect id="Rectangle_2481" data-name="Rectangle 2481" width="0.294" height="4.159" transform="translate(28.596 24.883) rotate(180)" opacity="0.2"/>
      <rect id="Rectangle_2482" data-name="Rectangle 2482" width="0.294" height="4.159" transform="translate(27.949 24.883) rotate(180)" opacity="0.2"/>
      <rect id="Rectangle_2483" data-name="Rectangle 2483" width="11.685" height="4.528" transform="translate(51.075 20.541) rotate(180)" fill="#407bff"/>
      <rect id="Rectangle_2484" data-name="Rectangle 2484" width="3.001" height="4.528" transform="translate(36.387 16.011)" fill="#407bff"/>
      <rect id="Rectangle_2485" data-name="Rectangle 2485" width="3.001" height="4.528" transform="translate(36.387 16.011)" opacity="0.2"/>
      <rect id="Rectangle_2486" data-name="Rectangle 2486" width="0.294" height="4.159" transform="translate(50.874 20.356) rotate(180)" opacity="0.2"/>
      <rect id="Rectangle_2487" data-name="Rectangle 2487" width="0.294" height="4.159" transform="translate(50.228 20.356) rotate(180)" opacity="0.2"/>
      <rect id="Rectangle_2488" data-name="Rectangle 2488" width="0.294" height="4.159" transform="translate(49.581 20.356) rotate(180)" opacity="0.2"/>
      <rect id="Rectangle_2489" data-name="Rectangle 2489" width="0.294" height="4.159" transform="translate(48.934 20.356) rotate(180)" opacity="0.2"/>
      <rect id="Rectangle_2490" data-name="Rectangle 2490" width="0.294" height="4.159" transform="translate(48.288 20.356) rotate(180)" opacity="0.2"/>
      <rect id="Rectangle_2491" data-name="Rectangle 2491" width="0.294" height="4.159" transform="translate(47.641 20.356) rotate(180)" opacity="0.2"/>
      <rect id="Rectangle_2492" data-name="Rectangle 2492" width="0.294" height="4.159" transform="translate(46.995 20.356) rotate(180)" opacity="0.2"/>
      <rect id="Rectangle_2493" data-name="Rectangle 2493" width="0.294" height="4.159" transform="translate(46.348 20.356) rotate(180)" opacity="0.2"/>
      <rect id="Rectangle_2494" data-name="Rectangle 2494" width="0.294" height="4.159" transform="translate(45.701 20.356) rotate(180)" opacity="0.2"/>
      <rect id="Rectangle_2495" data-name="Rectangle 2495" width="0.294" height="4.159" transform="translate(45.055 20.356) rotate(180)" opacity="0.2"/>
      <rect id="Rectangle_2496" data-name="Rectangle 2496" width="0.294" height="4.159" transform="translate(44.408 20.356) rotate(180)" opacity="0.2"/>
      <rect id="Rectangle_2497" data-name="Rectangle 2497" width="0.294" height="4.159" transform="translate(43.762 20.356) rotate(180)" opacity="0.2"/>
      <rect id="Rectangle_2498" data-name="Rectangle 2498" width="0.294" height="4.159" transform="translate(43.113 20.356) rotate(180)" opacity="0.2"/>
      <rect id="Rectangle_2499" data-name="Rectangle 2499" width="0.294" height="4.159" transform="translate(42.466 20.356) rotate(180)" opacity="0.2"/>
      <rect id="Rectangle_2500" data-name="Rectangle 2500" width="0.294" height="4.159" transform="translate(41.82 20.356) rotate(180)" opacity="0.2"/>
      <rect id="Rectangle_2501" data-name="Rectangle 2501" width="0.294" height="4.159" transform="translate(41.173 20.356) rotate(180)" opacity="0.2"/>
      <rect id="Rectangle_2502" data-name="Rectangle 2502" width="0.294" height="4.159" transform="translate(40.527 20.356) rotate(180)" opacity="0.2"/>
      <rect id="Rectangle_2503" data-name="Rectangle 2503" width="0.294" height="4.159" transform="translate(39.88 20.356) rotate(180)" opacity="0.2"/>
      <rect id="Rectangle_2504" data-name="Rectangle 2504" width="11.685" height="4.528" transform="translate(38.087 20.541) rotate(180)" fill="#407bff"/>
      <rect id="Rectangle_2505" data-name="Rectangle 2505" width="11.685" height="4.528" transform="translate(38.087 20.541) rotate(180)" fill="#fafafa" opacity="0.4"/>
      <rect id="Rectangle_2506" data-name="Rectangle 2506" width="3.001" height="4.528" transform="translate(23.401 16.011)" fill="#407bff"/>
      <rect id="Rectangle_2507" data-name="Rectangle 2507" width="3.001" height="4.528" transform="translate(23.401 16.011)" fill="#fafafa" opacity="0.4"/>
      <rect id="Rectangle_2508" data-name="Rectangle 2508" width="3.001" height="4.528" transform="translate(23.401 16.011)" opacity="0.2"/>
      <rect id="Rectangle_2509" data-name="Rectangle 2509" width="0.294" height="4.159" transform="translate(37.889 20.356) rotate(180)" opacity="0.2"/>
      <rect id="Rectangle_2510" data-name="Rectangle 2510" width="0.294" height="4.159" transform="translate(37.242 20.356) rotate(180)" opacity="0.2"/>
      <rect id="Rectangle_2511" data-name="Rectangle 2511" width="0.294" height="4.159" transform="translate(36.595 20.356) rotate(180)" opacity="0.2"/>
      <rect id="Rectangle_2512" data-name="Rectangle 2512" width="0.294" height="4.159" transform="translate(35.949 20.356) rotate(180)" opacity="0.2"/>
      <rect id="Rectangle_2513" data-name="Rectangle 2513" width="0.294" height="4.159" transform="translate(35.302 20.356) rotate(180)" opacity="0.2"/>
      <rect id="Rectangle_2514" data-name="Rectangle 2514" width="0.294" height="4.159" transform="translate(34.655 20.356) rotate(180)" opacity="0.2"/>
      <rect id="Rectangle_2515" data-name="Rectangle 2515" width="0.294" height="4.159" transform="translate(34.009 20.356) rotate(180)" opacity="0.2"/>
      <rect id="Rectangle_2516" data-name="Rectangle 2516" width="0.294" height="4.159" transform="translate(33.362 20.356) rotate(180)" opacity="0.2"/>
      <rect id="Rectangle_2517" data-name="Rectangle 2517" width="0.294" height="4.159" transform="translate(32.716 20.356) rotate(180)" opacity="0.2"/>
      <rect id="Rectangle_2518" data-name="Rectangle 2518" width="0.294" height="4.159" transform="translate(32.069 20.356) rotate(180)" opacity="0.2"/>
      <rect id="Rectangle_2519" data-name="Rectangle 2519" width="0.294" height="4.159" transform="translate(31.422 20.356) rotate(180)" opacity="0.2"/>
      <rect id="Rectangle_2520" data-name="Rectangle 2520" width="0.294" height="4.159" transform="translate(30.776 20.356) rotate(180)" opacity="0.2"/>
      <rect id="Rectangle_2521" data-name="Rectangle 2521" width="0.294" height="4.159" transform="translate(30.129 20.356) rotate(180)" opacity="0.2"/>
      <rect id="Rectangle_2522" data-name="Rectangle 2522" width="0.294" height="4.159" transform="translate(29.483 20.356) rotate(180)" opacity="0.2"/>
      <rect id="Rectangle_2523" data-name="Rectangle 2523" width="0.294" height="4.159" transform="translate(28.836 20.356) rotate(180)" opacity="0.2"/>
      <rect id="Rectangle_2524" data-name="Rectangle 2524" width="0.294" height="4.159" transform="translate(28.189 20.356) rotate(180)" opacity="0.2"/>
      <rect id="Rectangle_2525" data-name="Rectangle 2525" width="0.294" height="4.159" transform="translate(27.543 20.356) rotate(180)" opacity="0.2"/>
      <rect id="Rectangle_2526" data-name="Rectangle 2526" width="0.294" height="4.159" transform="translate(26.896 20.356) rotate(180)" opacity="0.2"/>
      <path id="Path_12687" data-name="Path 12687" d="M112.406,287.121H79.038a.173.173,0,0,0-.2.147v3.449a.165.165,0,0,0,.317,0v-3.35h3.4v3.35a.165.165,0,0,0,.317,0v-3.35h3.394v3.35a.165.165,0,0,0,.317,0v-3.35h3.39v3.35a.165.165,0,0,0,.317,0v-3.35h3.392v3.35a.165.165,0,0,0,.319,0v-3.35H97.4v3.35a.165.165,0,0,0,.317,0v-3.35h3.394v3.35a.165.165,0,0,0,.317,0v-3.35h3.394v3.35a.165.165,0,0,0,.317,0v-3.35h3.394v3.35a.165.165,0,0,0,.317,0v-3.35h3.392v3.35a.165.165,0,0,0,.317,0v-3.473a.145.145,0,0,0-.153-.123Z" transform="translate(-74.894 -265.555)" fill="#407bff"/>
      <path id="Path_12688" data-name="Path 12688" d="M112.406,287.121H79.038a.173.173,0,0,0-.2.147v3.449a.165.165,0,0,0,.317,0v-3.35h3.4v3.35a.165.165,0,0,0,.317,0v-3.35h3.394v3.35a.165.165,0,0,0,.317,0v-3.35h3.39v3.35a.165.165,0,0,0,.317,0v-3.35h3.392v3.35a.165.165,0,0,0,.319,0v-3.35H97.4v3.35a.165.165,0,0,0,.317,0v-3.35h3.394v3.35a.165.165,0,0,0,.317,0v-3.35h3.394v3.35a.165.165,0,0,0,.317,0v-3.35h3.394v3.35a.165.165,0,0,0,.317,0v-3.35h3.392v3.35a.165.165,0,0,0,.317,0v-3.473a.145.145,0,0,0-.153-.123Z" transform="translate(-74.894 -265.555)" fill="#fafafa" opacity="0.6"/>
      <path id="Path_12689" data-name="Path 12689" d="M103.745,278.895a2.9,2.9,0,0,0,1.84-.66l6.173-5.084a2.9,2.9,0,0,1,1.843-.66h26.38a.542.542,0,0,1,.532.631,28.69,28.69,0,0,1-4.04,10.99c-.272.446-.549.883-.831,1.315l-.28.422c-.294.44-.6.877-.885,1.315a59.4,59.4,0,0,0-3.233,5.157h0a33.9,33.9,0,0,0-2.531,5.98,3.886,3.886,0,0,1-3.705,2.7H66.438a3.878,3.878,0,0,1-3.8-3.116l-1.119-5.576h0l-1.031-5.147-.264-1.315-.085-.422-.262-1.315-.914-4.578a.54.54,0,0,1,.528-.645Zm28.2-4.183a.6.6,0,0,0,.426.179h5.03a.607.607,0,0,0,0-1.214h-5.04a.609.609,0,0,0-.607.607.6.6,0,0,0,.19.428Zm-10.645-.857a.607.607,0,0,0-.428-.178h-5.04a.6.6,0,0,0-.428,1.035.6.6,0,0,0,.428.179h5.03a.6.6,0,0,0,.428-1.035Zm8.265,0a.6.6,0,0,0-.428-.178H124.1a.6.6,0,0,0-.428,1.035.6.6,0,0,0,.428.179h5.03a.6.6,0,0,0,.428-1.035Z" transform="translate(-58.948 -253.828)" fill="#407bff"/>
      <path id="Path_12690" data-name="Path 12690" d="M64.93,337.71l.085.422.264,1.315h74c.3-.438.6-.875.885-1.315l.28-.422Z" transform="translate(-63.743 -306.111)" opacity="0.3"/>
      <rect id="Rectangle_2527" data-name="Rectangle 2527" width="11.141" height="2.759" rx="1.379" transform="translate(57.14 30.117) rotate(180)" opacity="0.3"/>
      <rect id="Rectangle_2528" data-name="Rectangle 2528" width="11.141" height="2.759" rx="1.379" transform="translate(43.403 30.117) rotate(180)" opacity="0.3"/>
      <rect id="Rectangle_2529" data-name="Rectangle 2529" width="11.141" height="2.759" rx="1.379" transform="translate(70.875 30.117) rotate(180)" opacity="0.3"/>
      <path id="Path_12691" data-name="Path 12691" d="M139.09,378.4a3.886,3.886,0,0,1-3.707,2.709H76.813a3.878,3.878,0,0,1-3.8-3.116L71.89,372.42h69.731A33.986,33.986,0,0,0,139.09,378.4Z" transform="translate(-69.323 -333.937)" opacity="0.3"/>
    </g>
  </g>
</svg>
