<svg xmlns="http://www.w3.org/2000/svg" width="70.432" height="67.583" viewBox="0 0 70.432 67.583">
  <g id="undraw_transfer_money_re_6o1h" opacity="0.645">
    <path id="Path_12791" data-name="Path 12791" d="M489.943,434.514a.293.293,0,0,0,.212-.508l-.02-.08.008-.019a.787.787,0,0,1,1.451.005,6.984,6.984,0,0,1,.614,1.749,2.327,2.327,0,0,1-.041.8,9.332,9.332,0,0,0,.849-3.876,9,9,0,0,0-.056-1q-.046-.41-.128-.815a9.439,9.439,0,0,0-1.872-4,2.513,2.513,0,0,1-1.045-1.084,1.917,1.917,0,0,1-.174-.524,2.364,2.364,0,0,0,.153-.816c.071-.108.2-.161.275-.266.385-.522.915-.431,1.192.278.592.3.6.794.234,1.27-.231.3-.263.713-.465,1.037l.063.079a9.5,9.5,0,0,1,.992,1.571,3.949,3.949,0,0,1,.236-1.834A6.614,6.614,0,0,1,493.443,425a.811.811,0,0,1,1.444.4l0,.021q-.083.047-.162.1a.4.4,0,0,0,.16.723h.008a3.962,3.962,0,0,1-.1.591c.478,1.848-.554,2.521-2.027,2.552l-.1.049a9.7,9.7,0,0,1,.522,2.456,9.2,9.2,0,0,1-.007,1.485l0-.018a2.431,2.431,0,0,1,.83-1.4,18.273,18.273,0,0,1,2.229-1.139.456.456,0,0,1,.7.444l0,.018a2.672,2.672,0,0,0-.3.144q-.083.047-.162.1a.4.4,0,0,0,.16.723h.008l.017,0a3.957,3.957,0,0,1-.728,1.14c-.3,1.613-1.582,1.766-2.955,1.3h0a9.694,9.694,0,0,1-.651,1.9H490c-.008-.026-.016-.053-.023-.078a2.645,2.645,0,0,0,.644-.038l-.518-.637-.011-.013-.263-.324h0a3.874,3.874,0,0,1,.113-.986Z" transform="translate(-426.516 -369.039)" fill="#f2f2f2"/>
    <path id="Path_12792" data-name="Path 12792" d="M159.753,521.274a.153.153,0,0,0,.154.154h49.482a.154.154,0,0,0,0-.307H159.907A.153.153,0,0,0,159.753,521.274Z" transform="translate(-139.129 -453.844)" fill="#ccc"/>
    <g id="Group_11302" data-name="Group 11302" transform="translate(0 8.497)">
      <path id="Path_12793" data-name="Path 12793" d="M30.288,124.839H7.512A5.042,5.042,0,0,1,2.476,119.8V70.854a5.042,5.042,0,0,1,5.037-5.037H30.288a5.042,5.042,0,0,1,5.037,5.037V119.8a5.042,5.042,0,0,1-5.037,5.037Z" transform="translate(-2.156 -65.817)" fill="#3f3d56"/>
      <path id="Path_12794" data-name="Path 12794" d="M255.489,205.281a.213.213,0,0,0-.213.213v6.818a.213.213,0,1,0,.426,0v-6.818A.213.213,0,0,0,255.489,205.281Z" transform="translate(-222.32 -187.276)" fill="#3f3d56"/>
      <path id="Path_12795" data-name="Path 12795" d="M38.08,74.085v48.947a4.558,4.558,0,0,1-4.26,4.548h0l-.107.005c-.063,0-.126,0-.19,0l-.663-.049c-.433-.032-1.062-.08-1.847-.143l-.746-.06c-.522-.043-1.1-.089-1.71-.143l-.757-.065c-1.323-.114-2.805-.247-4.368-.4l-.8-.077-.213-.021c-1.114-.11-16.23-3.031-16.23-3.6V74.085a4.557,4.557,0,0,1,4.558-4.558h2.721a.831.831,0,0,1,.821.772c0,.029.006.058.012.086a.926.926,0,0,0,.922.739H29.047a.926.926,0,0,0,.922-.739c.005-.029.009-.058.012-.086a.831.831,0,0,1,.821-.772h2.721A4.557,4.557,0,0,1,38.08,74.085Z" transform="translate(-5.39 -69.049)" fill="#fff"/>
      <path id="Path_12796" data-name="Path 12796" d="M.213,165.67a.213.213,0,0,0-.213.213v1.7a.213.213,0,1,0,.426,0v-1.7A.213.213,0,0,0,.213,165.67Z" transform="translate(0 -152.779)" fill="#3f3d56"/>
      <path id="Path_12797" data-name="Path 12797" d="M.213,205.281a.213.213,0,0,0-.213.213v3.3a.213.213,0,0,0,.426,0v-3.3A.213.213,0,0,0,.213,205.281Z" transform="translate(0 -187.276)" fill="#3f3d56"/>
      <path id="Path_12798" data-name="Path 12798" d="M.213,241.591A.213.213,0,0,0,0,241.8v3.3a.213.213,0,1,0,.426,0v-3.3A.213.213,0,0,0,.213,241.591Z" transform="translate(0 -218.899)" fill="#3f3d56"/>
      <rect id="Rectangle_2639" data-name="Rectangle 2639" width="4.155" height="0.533" rx="0.266" transform="translate(3.889 1.225)" fill="#e6e6e6"/>
      <circle id="Ellipse_783" data-name="Ellipse 783" cx="0.426" cy="0.426" r="0.426" transform="translate(25.658 0.906)" fill="#e6e6e6"/>
      <circle id="Ellipse_784" data-name="Ellipse 784" cx="0.426" cy="0.426" r="0.426" transform="translate(26.83 0.906)" fill="#e6e6e6"/>
      <circle id="Ellipse_785" data-name="Ellipse 785" cx="0.426" cy="0.426" r="0.426" transform="translate(28.002 0.906)" fill="#e6e6e6"/>
    </g>
    <path id="Path_12799" data-name="Path 12799" d="M73.879,291.549H55.805a.516.516,0,0,1,0-1.033H73.879a.516.516,0,0,1,0,1.033Z" transform="translate(-48.151 -253.01)" fill="#e6e6e6"/>
    <circle id="Ellipse_786" data-name="Ellipse 786" cx="7.488" cy="7.488" r="7.488" transform="translate(9.268 43.573)" fill="#6c63ff"/>
    <path id="Path_12800" data-name="Path 12800" d="M120.919,376.577a2.552,2.552,0,0,0-1.813.554,1.069,1.069,0,0,0-.083,1.5c.413.451,1.054.512,1.53.864a1,1,0,0,1-.064,1.622,1.725,1.725,0,0,1-2.043-.193c-.149-.113-.294.139-.147.251a2.128,2.128,0,0,0,1.848.424,1.448,1.448,0,0,0,1.08-1.263,1.2,1.2,0,0,0-.245-.827,1.878,1.878,0,0,0-.754-.52c-.485-.212-1.32-.486-1.179-1.175.171-.836,1.188-.915,1.87-.943.186-.008.187-.3,0-.29Z" transform="translate(-102.973 -327.961)" fill="#fff"/>
    <path id="Path_12801" data-name="Path 12801" d="M129.74,372.569l-.028,6.377a.145.145,0,0,0,.29,0l.028-6.377a.145.145,0,0,0-.29,0Z" transform="translate(-112.966 -324.349)" fill="#fff"/>
    <path id="Path_12802" data-name="Path 12802" d="M171.478,0H134.561a2.458,2.458,0,0,0-2.455,2.455v25.3a2.458,2.458,0,0,0,2.455,2.455h36.917a2.458,2.458,0,0,0,2.455-2.455V2.455A2.458,2.458,0,0,0,171.478,0Z" transform="translate(-115.051)" fill="#fff"/>
    <circle id="Ellipse_787" data-name="Ellipse 787" cx="4.131" cy="4.131" r="4.131" transform="translate(33.668 6.78)" fill="#6c63ff"/>
    <path id="Path_12803" data-name="Path 12803" d="M283.931,70.235a2.142,2.142,0,0,0-1.474.434.874.874,0,0,0-.138,1.177c.31.391.826.465,1.23.715a.82.82,0,0,1,.424.693.914.914,0,0,1-.344.725,1.443,1.443,0,0,1-1.772-.126c-.1-.075-.2.093-.1.167a1.765,1.765,0,0,0,1.482.363,1.191,1.191,0,0,0,.92-1.008,1.1,1.1,0,0,0-.748-1.1c-.414-.19-1.141-.393-1.073-.983.087-.751,1.006-.835,1.591-.859.124-.005.125-.2,0-.194h0Z" transform="translate(-245.348 -61.168)" fill="#fff"/>
    <path id="Path_12804" data-name="Path 12804" d="M291.821,66.885,291.8,72.2a.1.1,0,0,0,.194,0l.023-5.313a.1.1,0,0,0-.194,0Z" transform="translate(-254.127 -58.169)" fill="#fff"/>
    <path id="Path_12805" data-name="Path 12805" d="M171.478,0H134.561a2.458,2.458,0,0,0-2.455,2.455v25.3a2.458,2.458,0,0,0,2.455,2.455h36.917a2.458,2.458,0,0,0,2.455-2.455V2.455A2.458,2.458,0,0,0,171.478,0Zm2.2,27.754a2.2,2.2,0,0,1-2.2,2.2H134.561a2.2,2.2,0,0,1-2.2-2.2V2.455a2.2,2.2,0,0,1,2.2-2.2h36.917a2.2,2.2,0,0,1,2.2,2.2Z" transform="translate(-115.051)" fill="#3f3d56"/>
    <g id="Group_11303" data-name="Group 11303" transform="translate(29.759 2.498)">
      <path id="Path_12806" data-name="Path 12806" d="M234.469,19.35h-3.623a.331.331,0,0,0,0,.662h3.623a.331.331,0,0,0,0-.662Z" transform="translate(-230.516 -19.35)" fill="#e6e6e6"/>
      <path id="Path_12807" data-name="Path 12807" d="M281.469,19.35h-3.623a.331.331,0,0,0,0,.662h3.623a.331.331,0,0,0,0-.662Z" transform="translate(-271.448 -19.35)" fill="#e6e6e6"/>
      <path id="Path_12808" data-name="Path 12808" d="M328.469,19.35h-3.623a.331.331,0,0,0,0,.662h3.623a.331.331,0,0,0,0-.662Z" transform="translate(-312.38 -19.35)" fill="#e6e6e6"/>
    </g>
    <path id="Path_12809" data-name="Path 12809" d="M200.4,134.516H172.7a2.092,2.092,0,0,0-2.09,2.09v1.887a2.092,2.092,0,0,0,2.09,2.09H200.4a2.092,2.092,0,0,0,2.09-2.09v-1.887A2.092,2.092,0,0,0,200.4,134.516Z" transform="translate(-148.581 -117.15)" fill="#6c63ff"/>
    <path id="Path_12810" data-name="Path 12810" d="M66.012,170.58l-1.062-.5a7.8,7.8,0,0,1,1.012,2.314,7.8,7.8,0,0,1,1.432-2.08l-1.123.289c.692-3.391,3.295-5.826,6.275-5.826v-.258C69.433,164.516,66.718,167.052,66.012,170.58Z" transform="translate(-56.564 -143.277)" fill="#3f3d56"/>
    <path id="Path_12811" data-name="Path 12811" d="M62.288,244.549H55.575a.516.516,0,0,1,0-1.033h6.713a.516.516,0,0,1,0,1.033Z" transform="translate(-47.95 -212.078)" fill="#e6e6e6"/>
    <g id="Group_11307" data-name="Group 11307" transform="translate(36.497 15.975)">
      <path id="Path_12812" data-name="Path 12812" d="M440.6,234.732,440.53,240l-1.312,4.7-1.049-.391.466-4.308-.061-5.83Z" transform="translate(-418.1 -219.919)" fill="#ffb6b6"/>
      <ellipse id="Ellipse_788" data-name="Ellipse 788" cx="1.244" cy="0.738" rx="1.244" ry="0.738" transform="translate(19.438 26.503) rotate(-79.681)" fill="#ffb6b6"/>
      <path id="Path_12813" data-name="Path 12813" d="M440.418,189.861s2.247.031,2.245,1.225c0,.674-.146,6.794-.549,10.511-.311,2.867-.9,3.615-.9,3.615l-1.42-3.227Z" transform="translate(-419.511 -181.325)" fill="#e6e6e6"/>
      <path id="Path_12814" data-name="Path 12814" d="M393,244.543h-7.589c.636-1.419,1.027-2.771.416-3.847l7.174-.416A8.1,8.1,0,0,0,393,244.543Z" transform="translate(-372.154 -225.235)" fill="#ffb6b6"/>
      <path id="Path_12815" data-name="Path 12815" d="M393.254,174.453l-3.015-.208-1.248,1.559-.632.115a1.927,1.927,0,0,0-1.581,1.981l.246,5.592,7.206.525,1.727-7.281-2.079-.828Z" transform="translate(-373.341 -167.725)" fill="#e6e6e6"/>
      <g id="Group_11304" data-name="Group 11304" transform="translate(0 8.003)">
        <path id="Path_12816" data-name="Path 12816" d="M284.235,186.142a1.646,1.646,0,0,1,.447.635l2.154,1.7-.841,1-2.094-1.837a1.645,1.645,0,0,1-.679-.378c-.489-.44-.658-1.048-.378-1.359s.9-.207,1.391.233Z" transform="translate(-282.708 -185.73)" fill="#ffb6b6"/>
        <path id="Path_12817" data-name="Path 12817" d="M316.9,188.887h0l-8.252,5.572-5.915-4.116.888-1.609,4.655,2.705,4.293-3.3C314.1,186.707,316.016,186.985,316.9,188.887Z" transform="translate(-300.149 -187.04)" fill="#e6e6e6"/>
      </g>
      <circle id="Ellipse_789" data-name="Ellipse 789" cx="2.237" cy="2.237" r="2.237" transform="translate(15.99 1.58)" fill="#ffb6b6"/>
      <path id="Path_12818" data-name="Path 12818" d="M406.518,129.1v.434l-2.523-.71-1.891.4a1.976,1.976,0,0,0-.249-.821,1.243,1.243,0,0,1,.005.873l-.254.053a.516.516,0,0,0-.226-.27.043.043,0,0,0-.035-.008c-.018.006-.019.03-.019.048,0,.1.005.191.009.287l-.731.152V129.1c-.7-1.577,1.147-2.942,2.958-2.956a2.953,2.953,0,0,1,2.956,2.956Z" transform="translate(-385.252 -125.835)" fill="#2f2e41"/>
      <path id="Path_12819" data-name="Path 12819" d="M414.329,132.093l-.19-.016c.014-.062.027-.124.04-.186a7.763,7.763,0,0,0-.144-1.691,13.532,13.532,0,0,1-.095,1.687c-.018.056-.707.417-.726.472-.763-.279-1.557-1.17-2.457-.65a2.334,2.334,0,0,1-1.743.032c-.15-.035-.17-.773-.318-.8-.265-.052-.654.619-.9.646l1.033-4c0-2.177-.2-4.461,2.556-3.692a3.588,3.588,0,0,1,1.892.918,4.356,4.356,0,0,1,1.006,2.287A12.5,12.5,0,0,1,414.329,132.093Z" transform="translate(-391.643 -123.74)" fill="#2f2e41"/>
      <g id="Group_11305" data-name="Group 11305" transform="translate(16.681 43.053)">
        <path id="Path_12820" data-name="Path 12820" d="M431.7,462.773l-1.231.029-.686-5.531,1.817-.043Z" transform="translate(-427.479 -457.228)" fill="#ffb7b7"/>
        <path id="Path_12821" data-name="Path 12821" d="M411.92,482.679h0a.355.355,0,0,0,.33.377h2.444a2.207,2.207,0,0,1,1.221-1.383l.068,1.383h1.261l-.153-2.223s.337-1.189-.363-1.8-.133-.523-.133-.523l-.275-1.376-1.9.224-.014,2.16-.924,2.144-1.356.67a.382.382,0,0,0-.2.346Z" transform="translate(-411.92 -474.565)" fill="#2f2e41"/>
      </g>
      <g id="Group_11306" data-name="Group 11306" transform="translate(13.711 42.359)">
        <path id="Path_12822" data-name="Path 12822" d="M393.694,457.188l-1.184.341-2.067-5.176,1.747-.5Z" transform="translate(-390.246 -451.85)" fill="#ffb7b7"/>
        <path id="Path_12823" data-name="Path 12823" d="M388.931,477.043h0a.355.355,0,0,0,.414.281l2.364-.62a2.207,2.207,0,0,1,.83-1.647l.416,1.32,1.219-.32-.712-2.112s.024-1.236-.807-1.647-.262-.473-.262-.473l-.616-1.261-1.786.7.535,2.093-.35,2.309-1.142.992a.382.382,0,0,0-.1.385Z" transform="translate(-388.917 -468.149)" fill="#2f2e41"/>
      </g>
      <path id="Path_12824" data-name="Path 12824" d="M371.138,270.768l.775.258a17.843,17.843,0,0,1,1.656,8.789L372.193,295.9h-2.251L368.3,277.98l-2.9,6.727,2.125,11.2-2.125.217-4.281-11.641,2.981-13.53Z" transform="translate(-350.988 -251.786)" fill="#2f2e41"/>
    </g>
  </g>
</svg>
