<svg xmlns="http://www.w3.org/2000/svg" width="15.784" height="17.626" viewBox="0 0 15.784 17.626">
  <path id="Path_12779" data-name="Path 12779" d="M16.153,15.219H5.631V13.457H16.153Zm0-3.525H5.631V9.932H16.153Zm0-3.525H5.631V6.406H16.153ZM3,19.626,4.315,18.3l1.315,1.322L6.946,18.3l1.315,1.322L9.577,18.3l1.315,1.322L12.207,18.3l1.315,1.322L14.838,18.3l1.315,1.322L17.469,18.3l1.315,1.322V2L17.469,3.322,16.153,2,14.838,3.322,13.523,2,12.207,3.322,10.892,2,9.577,3.322,8.261,2,6.946,3.322,5.631,2,4.315,3.322,3,2Z" transform="translate(-3 -2)"/>
</svg>
