<svg xmlns="http://www.w3.org/2000/svg" width="49" height="49" viewBox="0 0 49 49">
  <g id="Group_11256" data-name="Group 11256" transform="translate(-903 -201)">
    <circle id="Ellipse_700" data-name="Ellipse 700" cx="24.5" cy="24.5" r="24.5" transform="translate(903 201)" fill="#3c60d5"/>
    <path id="order_2_" data-name="order (2)" d="M12.062,1.422V9.544h4.073V1.422a2.037,2.037,0,1,0-4.073,0ZM2.044,4.967a.7.7,0,1,1,.993-.993l.385.385L4.666,3.116a2.173,2.173,0,1,0,.783,1.2l-1.53,1.53a.7.7,0,0,1-.993,0ZM5.664,2.118l.882-.882a.7.7,0,0,1,.993.993l-1,1a3.58,3.58,0,1,1-.872-1.114ZM-1.047,16.8a.7.7,0,0,0-.7.7.7.7,0,0,0,.7.7.7.7,0,0,0,.7-.7A.7.7,0,0,0-1.047,16.8Zm2.809,1.4a.7.7,0,0,1,0-1.4H8.55a.7.7,0,0,1,0,1.4Zm-2.809-4.214a.7.7,0,0,0-.7.7.7.7,0,0,0,.7.7.7.7,0,0,0,.7-.7A.7.7,0,0,0-1.047,13.992Zm2.809,1.4a.7.7,0,1,1,0-1.4H8.55a.7.7,0,0,1,0,1.4Zm10.3-4.448v10.3a.7.7,0,0,1-.7.7H-3.856a.7.7,0,0,1-.7-.7V1.351A3.376,3.376,0,0,1-1.188-2.02H14.1A3.45,3.45,0,0,1,17.54,1.422v8.825a.7.7,0,0,1-.7.7ZM11.328-.615a3.421,3.421,0,0,0-.671,2.037V20.547H-3.154V1.351A1.971,1.971,0,0,1-1.188-.615Zm-12.375,11.8a.7.7,0,0,0-.7.7.7.7,0,0,0,.7.7.7.7,0,0,0,.7-.7A.7.7,0,0,0-1.047,11.183Zm2.809,1.4H8.55a.7.7,0,0,0,0-1.4H1.762a.7.7,0,0,0,0,1.4Zm0,0" transform="translate(920.559 216.02)" fill="#fff" fill-rule="evenodd"/>
  </g>
</svg>
