<svg xmlns="http://www.w3.org/2000/svg" width="49" height="49" viewBox="0 0 49 49">
  <g id="Group_11255" data-name="Group 11255" transform="translate(-628 -201)">
    <circle id="Ellipse_699" data-name="Ellipse 699" cx="24.5" cy="24.5" r="24.5" transform="translate(628 201)" fill="#fff"/>
    <g id="XMLID_237_" transform="translate(613.328 210.713)">
      <g id="XMLID_1774_" transform="translate(26)">
        <path id="XMLID_1778_" d="M222.346,285.24a.58.58,0,0,0-.775.268l-3.19,6.57a.58.58,0,1,0,1.043.507l3.19-6.57A.58.58,0,0,0,222.346,285.24Z" transform="translate(-207.171 -268.647)" fill="#37b3a4"/>
        <path id="XMLID_2041_" d="M178.38,271.755a1.855,1.855,0,1,0,0,2.624A1.858,1.858,0,0,0,178.38,271.755Zm-.82,1.8a.7.7,0,1,1,0-.984A.7.7,0,0,1,177.56,273.56Z" transform="translate(-166.561 -255.487)" fill="#37b3a4"/>
        <path id="XMLID_2046_" d="M274.661,368.792a1.856,1.856,0,1,0,1.312.544A1.844,1.844,0,0,0,274.661,368.792Zm.492,2.348a.7.7,0,1,1,0-.984A.691.691,0,0,1,275.153,371.14Z" transform="translate(-258.495 -347.409)" fill="#37b3a4"/>
        <path id="XMLID_2055_" d="M51.059,5.1H45.821a2.5,2.5,0,0,0,.4-1.352V2.512A2.515,2.515,0,0,0,43.706,0a3.174,3.174,0,0,0-2.769,1.626l-1.6,2.867-1.6-2.867A3.174,3.174,0,0,0,34.966,0a2.515,2.515,0,0,0-2.512,2.512V3.75a2.5,2.5,0,0,0,.4,1.352H27.613A1.615,1.615,0,0,0,26,6.715v3.964a1.616,1.616,0,0,0,1.16,1.548V27.947A1.741,1.741,0,0,0,28.9,29.687H49.773a1.741,1.741,0,0,0,1.739-1.739V12.227a1.616,1.616,0,0,0,1.16-1.548V6.715A1.615,1.615,0,0,0,51.059,5.1Zm-9.11-2.911A2.014,2.014,0,0,1,43.706,1.16a1.354,1.354,0,0,1,1.352,1.352V3.75A1.354,1.354,0,0,1,43.706,5.1H40.324Zm-.641,8.942H37.365V6.262h3.943ZM33.614,3.75V2.512A1.354,1.354,0,0,1,34.966,1.16a2.014,2.014,0,0,1,1.757,1.031L38.348,5.1H34.966A1.354,1.354,0,0,1,33.614,3.75ZM27.16,6.715a.454.454,0,0,1,.453-.453H36.2v4.87H27.613a.454.454,0,0,1-.453-.453Zm24.352,3.964a.454.454,0,0,1-.453.453H49.367a.58.58,0,0,0,0,1.16h.986V27.947a.58.58,0,0,1-.58.58H28.9a.58.58,0,0,1-.58-.58V12.292H44.148a.58.58,0,1,0,0-1.16H42.467V6.262h8.592a.454.454,0,0,1,.453.453Z" transform="translate(-26)" fill="#37b3a4"/>
        <path id="XMLID_2066_" d="M374.58,192a.58.58,0,1,0,.41.17A.584.584,0,0,0,374.58,192Z" transform="translate(-353.822 -180.867)" fill="#37b3a4"/>
      </g>
    </g>
  </g>
</svg>
